<svg xmlns="http://www.w3.org/2000/svg" enable-background="new 0 0 3000 3000" viewBox="0 0 3000 3000" id="lady-doing-yoga">
  <switch>
    <g>
      <g>
        <g>
          <g>
            <g>
              <g>
                <g>
                  <polygon points="150 1639.467 1005.984 1121.614 2850 2229.929 1994.016 2747.776" opacity=".1"></polygon>
                  <polygon fill="#89768a" points="2817.043 2218.631 2817.043 2195.618 1006.016 1130.14 183.026 1605.184 182.962 1628.07 1993.988 2716.56"></polygon>
                  <polygon fill="#a28ca3" points="2817.043 2195.94 1006.016 1107.449 182.962 1605.379 1993.988 2693.869"></polygon>
                </g>
                <g>
                  <g>
                    <g>
                      <path fill="#e6e6e6" d="M1888.852,1819.781c180.758,171.846,130.763,354.089-111.66,407.028
											c-242.424,52.938-585.518-43.466-766.276-215.312c-180.758-171.846-130.737-354.064,111.687-407.003
											C1365.026,1551.556,1708.094,1647.935,1888.852,1819.781z"></path>
                    </g>
                  </g>
                </g>
                <g>
                  <g>
                    <g>
                      <g>
                        <g>
                          <g>
                            <path fill="#314e6e" d="M1762.781,1589.812c-181.404,188.107-505.999,145.803-660.19,146.47
														c-88.329,0.382-273.386,58.448-234.932-20.818c79.749-164.391,356.859-294.428,814.829-231.974
														C1682.488,1483.491,1843.377,1506.238,1762.781,1589.812z"></path>
                          </g>
                        </g>
                        <g>
                          <g>
                            <path fill="#36577a" d="M1792.52,1566.763c-178.43-35.688,13.552,123.791-145.718,142.753
														c-124.901,14.87-23.791-35.688-258.723-217.103C1267.024,1398.934,1906.365,1589.534,1792.52,1566.763z"></path>
                          </g>
                        </g>
                        <g>
                          <g>
                            <path fill="#36577a" d="M1614.09,1560.815c-54.136,162.229,29.426,350.578,76.93,497.281
														c27.213,84.04,80.075,143.818,155.028,97.523c83.995-51.879,62.718,74.407,95.359-223.022
														c20.094-183.097-26.96-282.561-79.905-465.138C1861.502,1467.459,1650.842,1450.679,1614.09,1560.815z"></path>
                          </g>
                        </g>
                        <g>
                          <path fill="#406a94" d="M1615.577,1859.704c-311.218-62.18-666.773,76.923-753.865-111.526
													c-46.734-101.122,113.554-121.728,228.985-113.013c189.372,14.298,80.892,49.919,530.564,90.724
													C1676.919,1748.86,1703.385,1798.479,1615.577,1859.704z"></path>
                        </g>
                      </g>
                    </g>
                  </g>
                </g>
                <g>
                  <g>
                    <g>
                      <path fill="#785943" d="M1130.564,836.414c0.865-98.992,58.719-227.235,170.179-280.664
											C1146.607,677.726,1139.014,776.715,1130.564,836.414z"></path>
                      <g>
                        <g>
                          <path fill="#5e4634" d="M1667.218,294.765c-50.181-16.568-109.677-27.05-138.198-2.619
													c-123.141,105.479-150.461,226.771-247.099,313.956c-112.627,108.448-101.4,226.238-69.046,253.924l10.517-29.103
													l18.991,63.885l25.035-35.396l30.179,32.899l369.621-223.325V294.765z"></path>
                          <g>
                            <path fill="#ffb584" d="M1046.636,1484.872c0,0,201.487-272.153,215.799-284.657
														c55.031-48.08,105.831,47.663,104.828,84.76c-1.482,54.782-255.079,243.297-255.079,243.297
														C1097.717,1500.695,1089.083,1476.602,1046.636,1484.872z"></path>
                            <g>
                              <g>
                                <path fill="#d95757" d="M1247.566,1213.598c11.518-25.4,118.86-458.162,141.02-494.007
																c80.365-129.994,168.759-31.109,238.972-16.146c-78.906,82.186-246.883,577.225-265.941,593.04
																C1336.998,1316.914,1232.442,1246.95,1247.566,1213.598z"></path>
                              </g>
                            </g>
                            <g>
                              <path fill="#ffb584" d="M928.446,1543.228c15.498-2.791,24.234-12.956,28.422-8.818
															c13.792,6.187,12.512,1.62,10.087,9.428c-2.642,8.505-17.063,16.231-27.184,22.014
															c-30.169,17.237-30.89-6.318-56.756,3.538c-22.637,26.325-4.339,48.764,14.205,60.13
															c29.38,18.007,86.45,7.926,110.924-1.89c27.968-11.217,54.91-31.078,60.346-50.043
															c7.817-27.269,55.491-57.229,63.131-63.781c30.423-26.093-36.308-66.435-55.794-54.107
															c-17.946,11.165-39.732,39.925-55.864,32.939c-18.065-7.822-62.764,0.575-70.746,4.207
															c-17.481,7.955-30.828,20.966-43.77,24.68c-3.407,0.978-5.54,4.518-4.508,7.909
															C904.123,1539.893,908.844,1546.758,928.446,1543.228z"></path>
                            </g>
                          </g>
                          <path fill="#f66" d="M1480.268,656.713c0,0,46.737-78.58,332.448,40.645c0,0,60.039,41.5,60.667,212.4
													c0.347,94.431-71.669,175.405-84.613,427.577c0,0,27.291,67.3,62.897,217.534
													c35.809,151.091-166.724,97.027-303.002,44.609c-52.725-20.28-178.009-73.772-181.886-130.133
													c-2.433-35.379,83.555-111.917,69.066-195.784c-25.241-146.106-34.006-229.587-50.667-319.749
													C1372.531,885.367,1408.896,737.011,1480.268,656.713z"></path>
                          <g>
                            <path fill="#ffb584" d="M1175.334,1711.042c169.373,55.488,183.974-35.045,245.763,12.318
														c26.352,20.2,20.554,84.26,7.095,84.298c-43.713,0.124-36.506,92.854-65.964,72.767
														c-12.221-7.297-152.509-100.61-191.368-99.691c-27.802,0.658-79.508-12.762-94.813-22.966
														C1023.483,1722.723,1115.428,1691.416,1175.334,1711.042z"></path>
                          </g>
                          <g>
                            <path fill="#44709e" d="M1326.893,1863.971c268.452,167.068,313.411,345.438,557.816,306.519
														c51.697-8.232,47.515-112.166-16.835-167.293c-186.107-159.432-134.321-27.392-419.216-222.469
														C1392.567,1759.456,1337.994,1780.745,1326.893,1863.971z"></path>
                          </g>
                          <g>
                            <path fill="#ffb584" d="M1823.275,1921.272c-122.414-114.985-54.158-167.969-121.24-197.661
														c-28.609-12.664-93.976,12.406-87.926,23.552c19.65,36.203-45.256,80.819-15.337,96.103
														c11.556,6.808,152.102,80.65,168.902,113.199c12.019,23.287,46.48,59.98,61.833,68.026
														C1882.235,2052.12,1866.572,1961.941,1823.275,1921.272z"></path>
                          </g>
                          <path fill="#d95757" d="M1794.046,1311.062c12.944-252.172,79.684-306.873,79.337-401.304
													c-0.628-170.9-60.666-212.4-60.666-212.4c-131.535-54.888-225.587-66.477-288.882-63.045
													c55.557,6.938,124.87,24.256,209.94,59.756c0,0,106.837,94.942,52.797,257.072
													c-23.791,71.376-212.62,131.577-65.458,336.758c42.909,59.826,23.957,84.185,42.457,238.355
													c9.727,81.067-153.338,56.082-238.695,61.328c73.38,31.451,338.541,128.649,324.147,8.922
													C1828.923,1429.322,1794.046,1311.062,1794.046,1311.062z"></path>
                          <path fill="#e6a377" d="M1713.611,706.587c7.59,76.168-5.515,210.197-81.678,217.788
													c-76.163,7.591-152.572-64.312-139.77-139.779c13.987-82.456,45.947-145.063,88.523-203.592
													C1625.713,519.104,1706.021,630.419,1713.611,706.587z"></path>
                          <path fill="#d95757" d="M1409.259,1127.979c3.914,22.979-1.659,27.176,2.611,52.162
													c85.673-64.77,244.072,56.245,310.171,111.543c21.31,17.828,38.79-7.801,64.874,11.053
													c1.563-25.902,18.635-99.876,21.09-122.049C1666.58,1076.146,1551.916,1088,1409.259,1127.979z"></path>
                          <path fill="#ffb584" d="M1928.501,1391.253c3.2,11.339-28.283,428.14-28.283,428.14
													c-23.28-36.447-58.464-41.127-79.136-12.22c0,0-34.73-412.692-28.562-421.825
													C1813.29,1354.595,1912.975,1336.243,1928.501,1391.253z"></path>
                          <g>
                            <g>
                              <g>
                                <path fill="#f66" d="M1929.316,1382.374c-2.63-24.947,65.424-538.298-13.256-604.701
																c-96.061-81.072-147.165,68.924-138.569,163.487c5.948,65.429,38.013,89.129,35.846,125.968
																c-8.922,151.675-55.555,341.831-13.922,338.857C1831.324,1403.705,1932.048,1408.292,1929.316,1382.374z"></path>
                              </g>
                            </g>
                          </g>
                          <path fill="#6e513d" d="M1793.946,953.724c6.168,1.981,18.567,4.127,30.259,5.878
													c14.036,2.102,19.231-20.077,19.231-20.077s31.939,24.809,44.378,24.431c2.167-10.109,14.341-22.999,14.341-22.999
													s30.792,20.768,58.893,10.482c31.335-11.469,51.171-33.244,42.613-68.7c-9.023-37.385-213.84-278.611-213.84-394.768
													l-106.471,35.493C1683.35,523.462,1681.823,917.71,1793.946,953.724z"></path>
                          <path fill="#ffb584" d="M1777.228,516.743c0,0,21.52,4.376,19.309,22.135
													c-2.21,17.759-33.347,74.458-44.916,72.805c-11.569-1.652-8.458-6.622-8.458-6.622s-11.43,38.995-30.213,62.489
													c-18.783,23.494-118.03,105.923-155.229,98.358c-27.634-5.62-32.318-14.034-58.698-76.031
													c-30.048-70.618-40.737-96.52-42.896-130.887c-2.502-39.829,1.315-123.817,17.935-158.617
													c16.62-34.8,67.413-143.783,234.176-95.552c0,0,117.713,43.028,69.487,209.802L1777.228,516.743z"></path>
                          <path fill="#785943" d="M1778.87,543.54c55.283-95.008,23.678-251.821-155.859-291.294
													c0,0-131.48-5.873-170.951,173.675c-0.533,3.958-11.58,54.799,0.738,59.49c7.601,2.895,132.125,87.296,226.94,19.918
													C1757.719,575.213,1769.489,559.663,1778.87,543.54z"></path>
                        </g>
                        <path fill="#785943" d="M1435.897 485.054c80.725-23.744 191.955-220.912 154.402-220.912-98.136 0-261.901 244.651-356.252 338.534C1391.644 587.873 1435.897 485.054 1435.897 485.054zM1987.359 722.922c-92.965-34.01-194.375-131.522-207.331-254.452C1843.248 654.593 1933.953 694.941 1987.359 722.922z"></path>
                        <path fill="#785943" d="M1890.919,606.812c-55.058-31.184-108.79-103.295-104.083-182.168
												C1807.204,548.63,1860.174,583.574,1890.919,606.812z"></path>
                      </g>
                    </g>
                  </g>
                  <path fill="#d95757" d="M1788.949,1282.054c44.607-127.883,45.204-107.861,48.748-225.082
									c5.164-170.823-24.708-93.662-33.282,41.383C1798.467,1192.036,1775.349,1321.041,1788.949,1282.054z"></path>
                  <path fill="#f66" d="M1788.431,971.03c-26.297-74.514-143.094-59.601-154.48-18.4
									c-6.37,23.052-18.875,50.876-29.167,81.009l-115.881-11.896c-29.234-73.52-95.543-142.205-106.305-103.262
									c-15.163,54.869-57.336,111.525-35.079,189.74c9.797,34.428,41.799,64.886,78.685,73.452l18.015,2.108l190.873,25.914
									c68.398,20.818,95.073,21.401,139.398,6.692C1856.829,1189.062,1806.274,1021.588,1788.431,971.03z"></path>
                </g>
              </g>
              <g>
                <path fill="#f2ac7d" d="M1946.807,1844.47c-13.227,22.574-84.312,46.264-106.884,33.036
								c-12.962-7.596-27.243-59.541-14.749-81.728c12.838-22.797,68.001-39.561,90.573-26.333
								C1928.708,1777.041,1954.402,1831.507,1946.807,1844.47z"></path>
                <path fill="#f2ac7d" d="M1975.29,1832.238c-8.135-2.297-25.148-15.473-34.32-22.589
								c-4.346-3.372-63.306-41.218-57.81-43.943c38.629-19.156,105.664,44.202,105.125,58.537
								C1988.054,1830.373,1981.193,1833.904,1975.29,1832.238z"></path>
                <path fill="#ffb584" d="M1959.299,1873.002c-14.988,21.444-99.829,21.987-119.26,4.467
								c-7.651-6.898,0.656-30.827,4.409-35.737c15.887-20.787,81.51-30.674,102.954-15.685
								C1959.715,1834.655,1967.906,1860.687,1959.299,1873.002z"></path>
              </g>
            </g>
          </g>
        </g>
      </g>
    </g>
  </switch>
</svg>