<?xml version="1.0" standalone="no"?><svg xmlns:xlink="http://www.w3.org/1999/xlink" xmlns="http://www.w3.org/2000/svg" viewBox="0 0 1000 454.54545454545456" preserveAspectRatio="xMaxYMax slice"><g transform="scale(0.683526999316473)"><rect x="0" y="0" width="1463" height="665" fill="#ffffff"/><rect x="26.6" y="26.6" width="13.299999999999997" height="13.299999999999997" fill="#ffffff"/><circle cx="29.925" cy="29.925" r="3.325" fill="#5eead4"/><path d="M 33.25 33.25 A 6.65 6.65 0 0 1  39.9 26.6 L 39.9 33.25L33.25 33.25" fill="#5eead4"/><path d="M 26.6 33.25 A 6.65 6.65 0 0 1  33.25 39.9 L 26.6 33.25 A 6.65 6.65 0 0 0 33.25 39.9" fill="#bc53fd"/><circle cx="36.575" cy="36.575" r="3.325" fill="#bc53fd"/><rect x="93.1" y="26.6" width="13.299999999999997" height="13.299999999999997" fill="#ffffff"/><path d="M 93.1 33.25 A 6.65 6.65 0 0 1  99.75 26.6 L 93.1 33.25 A 6.65 6.65 0 0 0 99.75 26.6" fill="#bc53fd"/><path d="M 99.75 33.25 A 6.65 6.65 0 0 1  106.4 26.6 L 99.75 33.25 A 6.65 6.65 0 0 0 106.4 26.6" fill="#bc53fd"/><path d="M 93.1 33.25 A 6.65 6.65 0 0 0 99.75 39.9 L 99.75 33.25L93.1 33.25" fill="#5eead4"/><circle cx="103.075" cy="36.575" r="3.325" fill="#bc53fd"/><path d="M 159.6 39.900000000000006 A 13.3 13.3 0 0 1  172.9 26.6 L 159.6 39.900000000000006 A 13.3 13.3 0 0 0 172.9 26.6" fill="#5eead4"/><path d="M 226.1 26.6 A 13.3 13.3 0 0 1  239.4 39.900000000000006 L 226.1 26.6 A 13.3 13.3 0 0 0 239.4 39.900000000000006" fill="#bc53fd"/><rect x="292.6" y="26.6" width="13.299999999999997" height="13.299999999999997" fill="#ffffff"/><circle cx="295.925" cy="29.925" r="3.325" fill="#bc53fd"/><path d="M 299.25 33.25 A 6.65 6.65 0 0 1  305.9 26.6 L 299.25 33.25 A 6.65 6.65 0 0 0 305.9 26.6" fill="#bc53fd"/><circle cx="295.925" cy="36.575" r="3.325" fill="#bc53fd"/><path d="M 299.25 39.9 A 6.65 6.65 0 0 0 305.9 33.25 L 299.25 33.25L299.25 39.9" fill="#bc53fd"/><rect x="359.1" y="26.6" width="13.299999999999997" height="13.299999999999997" fill="#ffffff"/><circle cx="362.425" cy="29.925" r="3.325" fill="#bc53fd"/><path d="M 365.75 33.25 A 6.65 6.65 0 0 0 372.4 26.6 L 365.75 26.6L365.75 33.25" fill="#bc53fd"/><path d="M 359.1 39.9 A 6.65 6.65 0 0 0 365.75 33.25 L 359.1 33.25L359.1 39.9" fill="#5eead4"/><circle cx="369.075" cy="36.575" r="3.325" fill="#bc53fd"/><circle cx="432.25" cy="33.25" r="6.65" fill="#5eead4"/><circle cx="498.75" cy="33.25" r="6.65" fill="#5eead4"/><path d="M 558.6 26.6 A 13.3 13.3 0 0 1 571.9 39.900000000000006 L 558.6 39.900000000000006L558.6 26.6" fill="#5eead4"/><rect x="625.1" y="26.6" width="13.299999999999997" height="13.299999999999997" fill="#ffffff"/><path d="M 625.1 26.6 A 6.65 6.65 0 0 1  631.75 33.25 L 625.1 26.6 A 6.65 6.65 0 0 0 631.75 33.25" fill="#5eead4"/><circle cx="635.075" cy="29.925" r="3.325" fill="#5eead4"/><path d="M 625.1 39.9 A 6.65 6.65 0 0 1  631.75 33.25 L 625.1 39.9 A 6.65 6.65 0 0 0 631.75 33.25" fill="#bc53fd"/><circle cx="635.075" cy="36.575" r="3.325" fill="#bc53fd"/><path d="M 691.6 39.900000000000006 A 13.3 13.3 0 0 0 704.9 26.6 L 691.6 26.6L691.6 39.900000000000006" fill="#5eead4"/><path d="M 758.1 39.900000000000006 A 13.3 13.3 0 0 1  771.4 26.6 L 771.4 39.900000000000006L758.1 39.900000000000006" fill="#5eead4"/><path d="M 824.6 39.900000000000006 A 13.3 13.3 0 0 1  837.9 26.6 L 824.6 39.900000000000006 A 13.3 13.3 0 0 0 837.9 26.6" fill="#bc53fd"/><rect x="891.1" y="26.6" width="13.299999999999997" height="13.299999999999997" fill="#ffffff"/><circle cx="894.4250000000001" cy="29.925" r="3.325" fill="#bc53fd"/><path d="M 897.75 33.25 A 6.65 6.65 0 0 1  904.4 26.6 L 897.75 33.25 A 6.65 6.65 0 0 0 904.4 26.6" fill="#bc53fd"/><path d="M 891.1 33.25 A 6.65 6.65 0 0 0 897.75 39.9 L 897.75 33.25L891.1 33.25" fill="#5eead4"/><path d="M 897.75 39.9 A 6.65 6.65 0 0 1  904.4 33.25 L 897.75 39.9 A 6.65 6.65 0 0 0 904.4 33.25" fill="#bc53fd"/><circle cx="964.25" cy="33.25" r="6.65" fill="#5eead4"/><path d="M 1024.1 39.900000000000006 A 13.3 13.3 0 0 1  1037.3999999999999 26.6 L 1024.1 39.900000000000006 A 13.3 13.3 0 0 0 1037.3999999999999 26.6" fill="#5eead4"/><path d="M 1090.6 39.900000000000006 A 13.3 13.3 0 0 1  1103.8999999999999 26.6 L 1090.6 39.900000000000006 A 13.3 13.3 0 0 0 1103.8999999999999 26.6" fill="#bc53fd"/><path d="M 1157.1 26.6 A 13.3 13.3 0 0 1  1170.3999999999999 39.900000000000006 L 1157.1 26.6 A 13.3 13.3 0 0 0 1170.3999999999999 39.900000000000006" fill="#5eead4"/><rect x="1223.6" y="26.6" width="13.299999999999997" height="13.299999999999997" fill="#ffffff"/><path d="M 1223.6 33.25 A 6.65 6.65 0 0 1  1230.25 26.6 L 1223.6 33.25 A 6.65 6.65 0 0 0 1230.25 26.6" fill="#bc53fd"/><path d="M 1230.25 26.6 A 6.65 6.65 0 0 1  1236.9 33.25 L 1230.25 26.6 A 6.65 6.65 0 0 0 1236.9 33.25" fill="#bc53fd"/><path d="M 1223.6 39.9 A 6.65 6.65 0 0 1  1230.25 33.25 L 1223.6 39.9 A 6.65 6.65 0 0 0 1230.25 33.25" fill="#5eead4"/><circle cx="1233.575" cy="36.575" r="3.325" fill="#5eead4"/><circle cx="1296.75" cy="33.25" r="6.65" fill="#5eead4"/><path d="M 1356.6 26.6 A 13.3 13.3 0 0 1 1369.8999999999999 39.900000000000006 L 1356.6 39.900000000000006L1356.6 26.6" fill="#5eead4"/><rect x="1423.1" y="26.6" width="13.299999999999997" height="13.299999999999997" fill="#ffffff"/><path d="M 1423.1 33.25 A 6.65 6.65 0 0 1  1429.75 26.6 L 1423.1 33.25 A 6.65 6.65 0 0 0 1429.75 26.6" fill="#5eead4"/><path d="M 1429.75 26.6 A 6.65 6.65 0 0 1  1436.4 33.25 L 1429.75 26.6 A 6.65 6.65 0 0 0 1436.4 33.25" fill="#5eead4"/><path d="M 1423.1 33.25 A 6.65 6.65 0 0 1  1429.75 39.9 L 1423.1 33.25 A 6.65 6.65 0 0 0 1429.75 39.9" fill="#bc53fd"/><circle cx="1433.075" cy="36.575" r="3.325" fill="#5eead4"/><rect x="26.6" y="93.1" width="13.299999999999997" height="13.299999999999997" fill="#ffffff"/><path d="M 26.6 99.75 A 6.65 6.65 0 0 1  33.25 93.1 L 26.6 99.75 A 6.65 6.65 0 0 0 33.25 93.1" fill="#5eead4"/><path d="M 33.25 93.1 A 6.65 6.65 0 0 1  39.9 99.75 L 33.25 93.1 A 6.65 6.65 0 0 0 39.9 99.75" fill="#bc53fd"/><circle cx="29.925" cy="103.075" r="3.325" fill="#5eead4"/><path d="M 33.25 99.75 A 6.65 6.65 0 0 1  39.9 106.4 L 33.25 99.75 A 6.65 6.65 0 0 0 39.9 106.4" fill="#5eead4"/><rect x="92.40356363636363" y="92.40356363636363" width="14.692872727272729" height="14.692872727272729" fill="#ffffff"/><path d="M 92.4 99.75 A 7.35 7.35 0 0 1  99.75 92.4 L 92.4 99.75 A 7.35 7.35 0 0 0 99.75 92.4" fill="#bc53fd"/><path d="M 99.75 99.75 A 7.35 7.35 0 0 1  107.1 92.4 L 107.1 99.75L99.75 99.75" fill="#bc53fd"/><circle cx="96.075" cy="103.425" r="3.675" fill="#5eead4"/><path d="M 99.75 107.1 A 7.35 7.35 0 0 1  107.1 99.75 L 99.75 107.1 A 7.35 7.35 0 0 0 107.1 99.75" fill="#bc53fd"/><circle cx="166.255" cy="99.755" r="8.045" fill="#5eead4"/><path d="M 224.01 91.01 A 17.48 17.48 0 0 1  241.48999999999998 108.49000000000001 L 224.01 91.01 A 17.48 17.48 0 0 0 241.48999999999998 108.49000000000001" fill="#5eead4"/><rect x="289.81425454545456" y="90.31425454545455" width="18.87149090909091" height="18.87149090909091" fill="#ffffff"/><path d="M 289.81 90.31 A 9.44 9.44 0 0 0 299.25 99.75 L 299.25 90.31L289.81 90.31" fill="#bc53fd"/><circle cx="303.97" cy="95.03" r="4.72" fill="#bc53fd"/><path d="M 289.81 99.75 A 9.44 9.44 0 0 1  299.25 109.19 L 289.81 99.75 A 9.44 9.44 0 0 0 299.25 109.19" fill="#bc53fd"/><path d="M 299.25 109.19 A 9.44 9.44 0 0 1  308.69 99.75 L 299.25 109.19 A 9.44 9.44 0 0 0 308.69 99.75" fill="#5eead4"/><rect x="355.61781818181817" y="89.61781818181818" width="20.264363636363633" height="20.264363636363633" fill="#ffffff"/><path d="M 355.62 89.62 A 10.13 10.13 0 0 1  365.75 99.75 L 355.62 89.62 A 10.13 10.13 0 0 0 365.75 99.75" fill="#bc53fd"/><path d="M 365.75 99.75 A 10.13 10.13 0 0 1  375.88 89.62 L 365.75 99.75 A 10.13 10.13 0 0 0 375.88 89.62" fill="#5eead4"/><path d="M 355.62 99.75 A 10.13 10.13 0 0 1  365.75 109.88 L 355.62 99.75 A 10.13 10.13 0 0 0 365.75 109.88" fill="#bc53fd"/><path d="M 365.75 109.88 A 10.13 10.13 0 0 1  375.88 99.75 L 365.75 109.88 A 10.13 10.13 0 0 0 375.88 99.75" fill="#5eead4"/><path d="M 421.42 88.92 A 21.66 21.66 0 0 1  443.08000000000004 110.58 L 421.42 88.92 A 21.66 21.66 0 0 0 443.08000000000004 110.58" fill="#bc53fd"/><rect x="487.22494545454543" y="88.22494545454546" width="23.050109090909082" height="23.050109090909082" fill="#ffffff"/><circle cx="492.985" cy="93.985" r="5.765" fill="#5eead4"/><circle cx="504.515" cy="93.985" r="5.765" fill="#5eead4"/><circle cx="492.985" cy="105.515" r="5.765" fill="#5eead4"/><path d="M 498.75 99.75 A 11.53 11.53 0 0 1 510.28 111.28 L 498.75 111.28L498.75 99.75" fill="#5eead4"/><path d="M 553.03 87.53 A 24.44 24.44 0 0 1  577.47 111.97 L 553.03 87.53 A 24.44 24.44 0 0 0 577.47 111.97" fill="#bc53fd"/><rect x="618.8320727272727" y="86.83207272727273" width="25.835854545454538" height="25.835854545454538" fill="#ffffff"/><path d="M 618.83 99.75 A 12.92 12.92 0 0 0 631.75 86.83 L 618.83 86.83L618.83 99.75" fill="#5eead4"/><path d="M 631.75 99.75 A 12.92 12.92 0 0 1  644.67 86.83 L 631.75 99.75 A 12.92 12.92 0 0 0 644.67 86.83" fill="#bc53fd"/><path d="M 618.83 99.75 A 12.92 12.92 0 0 1  631.75 112.67 L 618.83 99.75 A 12.92 12.92 0 0 0 631.75 112.67" fill="#bc53fd"/><path d="M 631.75 112.67 A 12.92 12.92 0 0 1  644.67 99.75 L 631.75 112.67 A 12.92 12.92 0 0 0 644.67 99.75" fill="#5eead4"/><path d="M 685.22 112.78999999999999 A 26.07 26.07 0 0 1  711.2900000000001 86.72 L 711.2900000000001 112.78999999999999L685.22 112.78999999999999" fill="#bc53fd"/><rect x="751.716" y="86.71600000000001" width="26.06799999999999" height="26.06799999999999" fill="#ffffff"/><path d="M 751.72 86.72 A 13.03 13.03 0 0 1 764.75 99.75 L 751.72 99.75L751.72 86.72" fill="#bc53fd"/><path d="M 764.75 86.72 A 13.03 13.03 0 0 1  777.78 99.75 L 764.75 86.72 A 13.03 13.03 0 0 0 777.78 99.75" fill="#bc53fd"/><path d="M 751.72 112.78 A 13.03 13.03 0 0 1  764.75 99.75 L 751.72 112.78 A 13.03 13.03 0 0 0 764.75 99.75" fill="#bc53fd"/><circle cx="771.265" cy="106.265" r="6.515" fill="#5eead4"/><rect x="818.216" y="86.71600000000001" width="26.06799999999999" height="26.06799999999999" fill="#ffffff"/><path d="M 818.22 99.75 A 13.03 13.03 0 0 1  831.25 86.72 L 818.22 99.75 A 13.03 13.03 0 0 0 831.25 86.72" fill="#5eead4"/><path d="M 831.25 99.75 A 13.03 13.03 0 0 1  844.28 86.72 L 844.28 99.75L831.25 99.75" fill="#5eead4"/><path d="M 818.22 99.75 A 13.03 13.03 0 0 1 831.25 112.78 L 818.22 112.78L818.22 99.75" fill="#bc53fd"/><path d="M 831.25 99.75 A 13.03 13.03 0 0 1  844.28 112.78 L 831.25 99.75 A 13.03 13.03 0 0 0 844.28 112.78" fill="#bc53fd"/><path d="M 884.83 112.67 A 25.84 25.84 0 0 1  910.6700000000001 86.83 L 884.83 112.67 A 25.84 25.84 0 0 0 910.6700000000001 86.83" fill="#bc53fd"/><rect x="952.0285090909091" y="87.5285090909091" width="24.442981818181813" height="24.442981818181813" fill="#ffffff"/><circle cx="958.14" cy="93.64" r="6.11" fill="#5eead4"/><path d="M 964.25 99.75 A 12.22 12.22 0 0 1  976.47 87.53 L 976.47 99.75L964.25 99.75" fill="#bc53fd"/><path d="M 952.03 111.97 A 12.22 12.22 0 0 1  964.25 99.75 L 952.03 111.97 A 12.22 12.22 0 0 0 964.25 99.75" fill="#bc53fd"/><circle cx="970.36" cy="105.86" r="6.11" fill="#5eead4"/><rect x="1019.2249454545455" y="88.22494545454546" width="23.050109090909082" height="23.050109090909082" fill="#ffffff"/><path d="M 1019.22 88.22 A 11.53 11.53 0 0 0 1030.75 99.75 L 1030.75 88.22L1019.22 88.22" fill="#bc53fd"/><path d="M 1030.75 99.75 A 11.53 11.53 0 0 1  1042.28 88.22 L 1030.75 99.75 A 11.53 11.53 0 0 0 1042.28 88.22" fill="#5eead4"/><path d="M 1019.22 111.28 A 11.53 11.53 0 0 1  1030.75 99.75 L 1019.22 111.28 A 11.53 11.53 0 0 0 1030.75 99.75" fill="#bc53fd"/><circle cx="1036.515" cy="105.515" r="5.765" fill="#bc53fd"/><rect x="1086.4213818181818" y="88.92138181818183" width="21.657236363636358" height="21.657236363636358" fill="#ffffff"/><circle cx="1091.835" cy="94.33500000000001" r="5.415" fill="#bc53fd"/><circle cx="1102.665" cy="94.33500000000001" r="5.415" fill="#5eead4"/><path d="M 1086.42 110.58 A 10.83 10.83 0 0 1  1097.25 99.75 L 1086.42 110.58 A 10.83 10.83 0 0 0 1097.25 99.75" fill="#5eead4"/><circle cx="1102.665" cy="105.165" r="5.415" fill="#5eead4"/><path d="M 1153.62 109.88000000000001 A 20.26 20.26 0 0 0 1173.8799999999999 89.62 L 1153.62 89.62L1153.62 109.88000000000001" fill="#5eead4"/><rect x="1220.8142545454546" y="90.31425454545455" width="18.87149090909091" height="18.87149090909091" fill="#ffffff"/><path d="M 1220.81 90.31 A 9.44 9.44 0 0 1  1230.25 99.75 L 1220.81 90.31 A 9.44 9.44 0 0 0 1230.25 99.75" fill="#5eead4"/><path d="M 1230.25 90.31 A 9.44 9.44 0 0 1  1239.69 99.75 L 1230.25 90.31 A 9.44 9.44 0 0 0 1239.69 99.75" fill="#5eead4"/><path d="M 1220.81 99.75 A 9.44 9.44 0 0 1  1230.25 109.19 L 1220.81 99.75 A 9.44 9.44 0 0 0 1230.25 109.19" fill="#bc53fd"/><path d="M 1230.25 109.19 A 9.44 9.44 0 0 1  1239.69 99.75 L 1239.69 109.19L1230.25 109.19" fill="#5eead4"/><rect x="1288.010690909091" y="91.01069090909091" width="17.478618181818177" height="17.478618181818177" fill="#ffffff"/><path d="M 1288.01 91.01 A 8.74 8.74 0 0 1  1296.75 99.75 L 1288.01 91.01 A 8.74 8.74 0 0 0 1296.75 99.75" fill="#5eead4"/><circle cx="1301.12" cy="95.38000000000001" r="4.37" fill="#5eead4"/><circle cx="1292.3799999999999" cy="104.12" r="4.37" fill="#bc53fd"/><path d="M 1296.75 108.49 A 8.74 8.74 0 0 1  1305.49 99.75 L 1296.75 108.49 A 8.74 8.74 0 0 0 1305.49 99.75" fill="#bc53fd"/><path d="M 1355.21 107.8 A 16.09 16.09 0 0 1  1371.3 91.71 L 1371.3 107.8L1355.21 107.8" fill="#bc53fd"/><circle cx="1429.7450000000001" cy="99.745" r="7.345" fill="#bc53fd"/><path d="M 26.6 159.6 A 13.3 13.3 0 0 0 39.900000000000006 172.9 L 39.900000000000006 159.6L26.6 159.6" fill="#bc53fd"/><rect x="91.70712727272728" y="158.20712727272726" width="16.085745454545453" height="16.085745454545453" fill="#ffffff"/><circle cx="95.72999999999999" cy="162.23000000000002" r="4.02" fill="#5eead4"/><path d="M 99.75 158.21 A 8.04 8.04 0 0 0 107.78999999999999 166.25 L 107.78999999999999 158.21L99.75 158.21" fill="#bc53fd"/><path d="M 91.71 166.25 A 8.04 8.04 0 0 1  99.75 174.29 L 91.71 166.25 A 8.04 8.04 0 0 0 99.75 174.29" fill="#5eead4"/><path d="M 99.75 174.29 A 8.04 8.04 0 0 1  107.78999999999999 166.25 L 99.75 174.29 A 8.04 8.04 0 0 0 107.78999999999999 166.25" fill="#5eead4"/><circle cx="166.245" cy="166.245" r="9.435" fill="#bc53fd"/><rect x="221.92138181818183" y="155.42138181818183" width="21.657236363636358" height="21.657236363636358" fill="#ffffff"/><circle cx="227.33499999999998" cy="160.83499999999998" r="5.415" fill="#5eead4"/><circle cx="238.165" cy="160.83499999999998" r="5.415" fill="#bc53fd"/><path d="M 221.92 177.08 A 10.83 10.83 0 0 1  232.75 166.25 L 221.92 177.08 A 10.83 10.83 0 0 0 232.75 166.25" fill="#bc53fd"/><path d="M 232.75 177.08 A 10.83 10.83 0 0 1  243.58 166.25 L 232.75 177.08 A 10.83 10.83 0 0 0 243.58 166.25" fill="#5eead4"/><rect x="287.0285090909091" y="154.0285090909091" width="24.442981818181813" height="24.442981818181813" fill="#ffffff"/><circle cx="293.14" cy="160.14000000000001" r="6.11" fill="#bc53fd"/><path d="M 299.25 166.25 A 12.22 12.22 0 0 1  311.47 154.03 L 299.25 166.25 A 12.22 12.22 0 0 0 311.47 154.03" fill="#bc53fd"/><path d="M 287.03 166.25 A 12.22 12.22 0 0 1  299.25 178.47 L 287.03 166.25 A 12.22 12.22 0 0 0 299.25 178.47" fill="#bc53fd"/><circle cx="305.36" cy="172.36" r="6.11" fill="#bc53fd"/><path d="M 352.14 152.64 A 27.23 27.23 0 0 1  379.37 179.86999999999998 L 352.14 152.64 A 27.23 27.23 0 0 0 379.37 179.86999999999998" fill="#bc53fd"/><path d="M 417.24 181.25 A 30.01 30.01 0 0 0 447.25 151.24 L 417.24 151.24L417.24 181.25" fill="#5eead4"/><path d="M 482.35 149.85 A 32.8 32.8 0 0 0 515.15 182.64999999999998 L 515.15 149.85L482.35 149.85" fill="#5eead4"/><path d="M 547.46 148.46 A 35.59 35.59 0 0 1  583.0500000000001 184.05 L 547.46 148.46 A 35.59 35.59 0 0 0 583.0500000000001 184.05" fill="#bc53fd"/><path d="M 612.56 147.06 A 38.37 38.37 0 0 1  650.93 185.43 L 612.56 147.06 A 38.37 38.37 0 0 0 650.93 185.43" fill="#5eead4"/><rect x="678.832" y="146.832" width="38.836" height="38.836" fill="#ffffff"/><path d="M 678.83 166.25 A 19.42 19.42 0 0 0 698.25 146.83 L 678.83 146.83L678.83 166.25" fill="#5eead4"/><circle cx="707.96" cy="156.54000000000002" r="9.71" fill="#bc53fd"/><path d="M 678.83 166.25 A 19.42 19.42 0 0 0 698.25 185.67000000000002 L 698.25 166.25L678.83 166.25" fill="#5eead4"/><circle cx="707.96" cy="175.96" r="9.71" fill="#5eead4"/><path d="M 745.33 146.83 A 38.84 38.84 0 0 1  784.1700000000001 185.67000000000002 L 745.33 146.83 A 38.84 38.84 0 0 0 784.1700000000001 185.67000000000002" fill="#bc53fd"/><circle cx="831.25" cy="166.25" r="19.42" fill="#bc53fd"/><path d="M 878.56 185.43 A 38.37 38.37 0 0 0 916.93 147.06 L 878.56 147.06L878.56 185.43" fill="#5eead4"/><rect x="946.4570181818182" y="148.45701818181817" width="35.58596363636363" height="35.58596363636363" fill="#ffffff"/><path d="M 946.46 166.25 A 17.79 17.79 0 0 0 964.25 148.46 L 946.46 148.46L946.46 166.25" fill="#5eead4"/><path d="M 964.25 148.46 A 17.79 17.79 0 0 0 982.04 166.25 L 982.04 148.46L964.25 148.46" fill="#5eead4"/><circle cx="955.355" cy="175.145" r="8.895" fill="#5eead4"/><circle cx="973.145" cy="175.145" r="8.895" fill="#bc53fd"/><rect x="1014.349890909091" y="149.8498909090909" width="32.80021818181818" height="32.80021818181818" fill="#ffffff"/><path d="M 1014.35 149.85 A 16.4 16.4 0 0 1  1030.75 166.25 L 1014.35 149.85 A 16.4 16.4 0 0 0 1030.75 166.25" fill="#bc53fd"/><circle cx="1038.95" cy="158.04999999999998" r="8.2" fill="#bc53fd"/><circle cx="1022.5500000000001" cy="174.45" r="8.2" fill="#5eead4"/><circle cx="1038.95" cy="174.45" r="8.2" fill="#5eead4"/><rect x="1082.2427636363636" y="151.24276363636363" width="30.014472727272718" height="30.014472727272718" fill="#ffffff"/><path d="M 1082.24 151.24 A 15.01 15.01 0 0 1 1097.25 166.25 L 1082.24 166.25L1082.24 151.24" fill="#bc53fd"/><path d="M 1097.25 166.25 A 15.01 15.01 0 0 1  1112.26 151.24 L 1097.25 166.25 A 15.01 15.01 0 0 0 1112.26 151.24" fill="#bc53fd"/><path d="M 1082.24 181.26 A 15.01 15.01 0 0 1  1097.25 166.25 L 1082.24 181.26 A 15.01 15.01 0 0 0 1097.25 166.25" fill="#5eead4"/><circle cx="1104.755" cy="173.755" r="7.505" fill="#bc53fd"/><rect x="1150.1356363636364" y="152.63563636363637" width="27.22872727272727" height="27.22872727272727" fill="#ffffff"/><circle cx="1156.9450000000002" cy="159.445" r="6.805" fill="#5eead4"/><circle cx="1170.555" cy="159.445" r="6.805" fill="#bc53fd"/><circle cx="1156.9450000000002" cy="173.055" r="6.805" fill="#bc53fd"/><path d="M 1163.75 166.25 A 13.61 13.61 0 0 1  1177.36 179.86 L 1163.75 166.25 A 13.61 13.61 0 0 0 1177.36 179.86" fill="#bc53fd"/><rect x="1218.028509090909" y="154.0285090909091" width="24.442981818181813" height="24.442981818181813" fill="#ffffff"/><path d="M 1218.03 166.25 A 12.22 12.22 0 0 1  1230.25 154.03 L 1218.03 166.25 A 12.22 12.22 0 0 0 1230.25 154.03" fill="#5eead4"/><path d="M 1230.25 166.25 A 12.22 12.22 0 0 0 1242.47 154.03 L 1230.25 154.03L1230.25 166.25" fill="#bc53fd"/><circle cx="1224.1399999999999" cy="172.36" r="6.11" fill="#5eead4"/><path d="M 1230.25 166.25 A 12.22 12.22 0 0 1 1242.47 178.47 L 1230.25 178.47L1230.25 166.25" fill="#bc53fd"/><circle cx="1296.75" cy="166.25" r="10.83" fill="#5eead4"/><circle cx="1363.245" cy="166.245" r="9.435" fill="#bc53fd"/><rect x="1421.7071272727273" y="158.20712727272726" width="16.085745454545453" height="16.085745454545453" fill="#ffffff"/><circle cx="1425.73" cy="162.23000000000002" r="4.02" fill="#bc53fd"/><path d="M 1429.75 166.25 A 8.04 8.04 0 0 1  1437.79 158.21 L 1429.75 166.25 A 8.04 8.04 0 0 0 1437.79 158.21" fill="#5eead4"/><circle cx="1425.73" cy="170.27" r="4.02" fill="#bc53fd"/><path d="M 1429.75 166.25 A 8.04 8.04 0 0 1  1437.79 174.29 L 1429.75 166.25 A 8.04 8.04 0 0 0 1437.79 174.29" fill="#5eead4"/><rect x="26.6" y="226.1" width="13.299999999999997" height="13.299999999999997" fill="#ffffff"/><path d="M 26.6 232.75 A 6.65 6.65 0 0 1  33.25 226.1 L 26.6 232.75 A 6.65 6.65 0 0 0 33.25 226.1" fill="#5eead4"/><path d="M 33.25 226.1 A 6.65 6.65 0 0 1  39.9 232.75 L 33.25 226.1 A 6.65 6.65 0 0 0 39.9 232.75" fill="#bc53fd"/><path d="M 26.6 239.4 A 6.65 6.65 0 0 1  33.25 232.75 L 26.6 239.4 A 6.65 6.65 0 0 0 33.25 232.75" fill="#bc53fd"/><path d="M 33.25 239.4 A 6.65 6.65 0 0 1  39.9 232.75 L 33.25 239.4 A 6.65 6.65 0 0 0 39.9 232.75" fill="#bc53fd"/><rect x="91.01069090909091" y="224.0106909090909" width="17.478618181818177" height="17.478618181818177" fill="#ffffff"/><path d="M 91.01 232.75 A 8.74 8.74 0 0 1  99.75 224.01 L 91.01 232.75 A 8.74 8.74 0 0 0 99.75 224.01" fill="#bc53fd"/><path d="M 99.75 224.01 A 8.74 8.74 0 0 0 108.49 232.75 L 108.49 224.01L99.75 224.01" fill="#bc53fd"/><path d="M 91.01 241.49 A 8.74 8.74 0 0 1  99.75 232.75 L 91.01 241.49 A 8.74 8.74 0 0 0 99.75 232.75" fill="#5eead4"/><path d="M 99.75 241.49 A 8.74 8.74 0 0 1  108.49 232.75 L 99.75 241.49 A 8.74 8.74 0 0 0 108.49 232.75" fill="#5eead4"/><rect x="155.42138181818183" y="221.92138181818183" width="21.657236363636358" height="21.657236363636358" fill="#ffffff"/><circle cx="160.83499999999998" cy="227.33499999999998" r="5.415" fill="#bc53fd"/><path d="M 166.25 221.92 A 10.83 10.83 0 0 1  177.08 232.75 L 166.25 221.92 A 10.83 10.83 0 0 0 177.08 232.75" fill="#bc53fd"/><path d="M 155.42 232.75 A 10.83 10.83 0 0 1  166.25 243.58 L 155.42 232.75 A 10.83 10.83 0 0 0 166.25 243.58" fill="#bc53fd"/><path d="M 166.25 243.58 A 10.83 10.83 0 0 1  177.08 232.75 L 166.25 243.58 A 10.83 10.83 0 0 0 177.08 232.75" fill="#bc53fd"/><rect x="219.83207272727273" y="219.83207272727273" width="25.835854545454538" height="25.835854545454538" fill="#ffffff"/><circle cx="226.29000000000002" cy="226.29000000000002" r="6.46" fill="#bc53fd"/><path d="M 232.75 219.83 A 12.92 12.92 0 0 0 245.67 232.75 L 245.67 219.83L232.75 219.83" fill="#5eead4"/><circle cx="226.29000000000002" cy="239.21" r="6.46" fill="#5eead4"/><path d="M 232.75 245.67 A 12.92 12.92 0 0 0 245.67 232.75 L 232.75 232.75L232.75 245.67" fill="#bc53fd"/><path d="M 284.24 247.75 A 30.01 30.01 0 0 1  314.25 217.74 L 284.24 247.75 A 30.01 30.01 0 0 0 314.25 217.74" fill="#bc53fd"/><rect x="348.65345454545457" y="215.65345454545454" width="34.193090909090905" height="34.193090909090905" fill="#ffffff"/><path d="M 348.65 232.75 A 17.1 17.1 0 0 1  365.75 215.65 L 348.65 232.75 A 17.1 17.1 0 0 0 365.75 215.65" fill="#5eead4"/><circle cx="374.3" cy="224.20000000000002" r="8.55" fill="#5eead4"/><path d="M 348.65 232.75 A 17.1 17.1 0 0 0 365.75 249.85 L 365.75 232.75L348.65 232.75" fill="#bc53fd"/><path d="M 365.75 232.75 A 17.1 17.1 0 0 1  382.85 249.85 L 365.75 232.75 A 17.1 17.1 0 0 0 382.85 249.85" fill="#5eead4"/><path d="M 413.06 213.56 A 38.37 38.37 0 0 1  451.43 251.93 L 413.06 213.56 A 38.37 38.37 0 0 0 451.43 251.93" fill="#5eead4"/><path d="M 477.47 254.01999999999998 A 42.55 42.55 0 0 0 520.02 211.47 L 477.47 211.47L477.47 254.01999999999998" fill="#5eead4"/><rect x="541.8855272727272" y="209.38552727272727" width="46.72894545454545" height="46.72894545454545" fill="#ffffff"/><circle cx="553.5699999999999" cy="221.07" r="11.68" fill="#5eead4"/><path d="M 565.25 209.39 A 23.36 23.36 0 0 1  588.61 232.75 L 565.25 209.39 A 23.36 23.36 0 0 0 588.61 232.75" fill="#5eead4"/><path d="M 541.89 256.11 A 23.36 23.36 0 0 1  565.25 232.75 L 541.89 256.11 A 23.36 23.36 0 0 0 565.25 232.75" fill="#5eead4"/><circle cx="576.93" cy="244.43" r="11.68" fill="#bc53fd"/><rect x="606.2962181818182" y="207.29621818181818" width="50.90756363636363" height="50.90756363636363" fill="#ffffff"/><path d="M 606.3 207.3 A 25.45 25.45 0 0 1  631.75 232.75 L 606.3 207.3 A 25.45 25.45 0 0 0 631.75 232.75" fill="#bc53fd"/><path d="M 631.75 232.75 A 25.45 25.45 0 0 1  657.2 207.3 L 657.2 232.75L631.75 232.75" fill="#5eead4"/><path d="M 606.3 232.75 A 25.45 25.45 0 0 1  631.75 258.2 L 606.3 232.75 A 25.45 25.45 0 0 0 631.75 258.2" fill="#bc53fd"/><path d="M 631.75 258.2 A 25.45 25.45 0 0 1  657.2 232.75 L 631.75 258.2 A 25.45 25.45 0 0 0 657.2 232.75" fill="#5eead4"/><circle cx="698.25" cy="232.75" r="25.8" fill="#bc53fd"/><circle cx="764.75" cy="232.75" r="25.8" fill="#5eead4"/><rect x="805.448" y="206.948" width="51.604" height="51.604" fill="#ffffff"/><circle cx="818.35" cy="219.85" r="12.9" fill="#5eead4"/><path d="M 831.25 206.95 A 25.8 25.8 0 0 1  857.05 232.75 L 831.25 206.95 A 25.8 25.8 0 0 0 857.05 232.75" fill="#bc53fd"/><circle cx="818.35" cy="245.65" r="12.9" fill="#5eead4"/><circle cx="844.15" cy="245.65" r="12.9" fill="#5eead4"/><path d="M 872.3 258.21000000000004 A 50.91 50.91 0 0 1  923.2099999999999 207.3 L 872.3 258.21000000000004 A 50.91 50.91 0 0 0 923.2099999999999 207.3" fill="#bc53fd"/><path d="M 940.89 209.39 A 46.73 46.73 0 0 0 987.62 256.12 L 987.62 209.39L940.89 209.39" fill="#bc53fd"/><path d="M 1009.47 211.47 A 42.55 42.55 0 0 1  1052.02 254.01999999999998 L 1009.47 211.47 A 42.55 42.55 0 0 0 1052.02 254.01999999999998" fill="#bc53fd"/><rect x="1078.0641454545455" y="213.56414545454547" width="38.371709090909086" height="38.371709090909086" fill="#ffffff"/><circle cx="1087.655" cy="223.155" r="9.595" fill="#5eead4"/><path d="M 1097.25 232.75 A 19.19 19.19 0 0 1  1116.44 213.56 L 1116.44 232.75L1097.25 232.75" fill="#bc53fd"/><circle cx="1087.655" cy="242.345" r="9.595" fill="#5eead4"/><path d="M 1097.25 251.94 A 19.19 19.19 0 0 1  1116.44 232.75 L 1116.44 251.94L1097.25 251.94" fill="#bc53fd"/><rect x="1146.6534545454545" y="215.65345454545454" width="34.193090909090905" height="34.193090909090905" fill="#ffffff"/><path d="M 1146.65 232.75 A 17.1 17.1 0 0 1  1163.75 215.65 L 1146.65 232.75 A 17.1 17.1 0 0 0 1163.75 215.65" fill="#5eead4"/><path d="M 1163.75 215.65 A 17.1 17.1 0 0 0 1180.85 232.75 L 1180.85 215.65L1163.75 215.65" fill="#5eead4"/><path d="M 1146.65 232.75 A 17.1 17.1 0 0 1  1163.75 249.85 L 1146.65 232.75 A 17.1 17.1 0 0 0 1163.75 249.85" fill="#bc53fd"/><circle cx="1172.3" cy="241.3" r="8.55" fill="#bc53fd"/><rect x="1215.2427636363636" y="217.74276363636363" width="30.014472727272725" height="30.014472727272725" fill="#ffffff"/><circle cx="1222.7450000000001" cy="225.245" r="7.505" fill="#5eead4"/><circle cx="1237.755" cy="225.245" r="7.505" fill="#5eead4"/><path d="M 1215.24 232.75 A 15.01 15.01 0 0 1  1230.25 247.76 L 1215.24 232.75 A 15.01 15.01 0 0 0 1230.25 247.76" fill="#5eead4"/><path d="M 1230.25 247.76 A 15.01 15.01 0 0 1  1245.26 232.75 L 1230.25 247.76 A 15.01 15.01 0 0 0 1245.26 232.75" fill="#bc53fd"/><path d="M 1283.83 245.67000000000002 A 25.84 25.84 0 0 1  1309.6699999999998 219.83 L 1283.83 245.67000000000002 A 25.84 25.84 0 0 0 1309.6699999999998 219.83" fill="#bc53fd"/><path d="M 1352.42 243.57999999999998 A 21.66 21.66 0 0 1  1374.0800000000002 221.92 L 1352.42 243.57999999999998 A 21.66 21.66 0 0 0 1374.0800000000002 221.92" fill="#bc53fd"/><path d="M 1421.01 241.48999999999998 A 17.48 17.48 0 0 1  1438.49 224.01 L 1421.01 241.48999999999998 A 17.48 17.48 0 0 0 1438.49 224.01" fill="#bc53fd"/><circle cx="33.25" cy="299.25" r="6.65" fill="#bc53fd"/><rect x="90.31425454545455" y="289.81425454545456" width="18.87149090909091" height="18.87149090909091" fill="#ffffff"/><circle cx="95.03" cy="294.53000000000003" r="4.72" fill="#bc53fd"/><path d="M 99.75 299.25 A 9.44 9.44 0 0 1  109.19 289.81 L 99.75 299.25 A 9.44 9.44 0 0 0 109.19 289.81" fill="#bc53fd"/><path d="M 90.31 308.69 A 9.44 9.44 0 0 1  99.75 299.25 L 90.31 308.69 A 9.44 9.44 0 0 0 99.75 299.25" fill="#5eead4"/><circle cx="104.47" cy="303.97" r="4.72" fill="#bc53fd"/><rect x="154.0285090909091" y="287.0285090909091" width="24.442981818181813" height="24.442981818181813" fill="#ffffff"/><path d="M 154.03 299.25 A 12.22 12.22 0 0 1  166.25 287.03 L 154.03 299.25 A 12.22 12.22 0 0 0 166.25 287.03" fill="#bc53fd"/><path d="M 166.25 299.25 A 12.22 12.22 0 0 1  178.47 287.03 L 166.25 299.25 A 12.22 12.22 0 0 0 178.47 287.03" fill="#5eead4"/><path d="M 154.03 311.47 A 12.22 12.22 0 0 1  166.25 299.25 L 166.25 311.47L154.03 311.47" fill="#bc53fd"/><path d="M 166.25 299.25 A 12.22 12.22 0 0 0 178.47 311.47 L 178.47 299.25L166.25 299.25" fill="#5eead4"/><path d="M 217.74 284.24 A 30.01 30.01 0 0 1  247.75 314.25 L 217.74 284.24 A 30.01 30.01 0 0 0 247.75 314.25" fill="#bc53fd"/><path d="M 281.46 281.46 A 35.59 35.59 0 0 1 317.04999999999995 317.04999999999995 L 281.46 317.04999999999995L281.46 281.46" fill="#bc53fd"/><rect x="345.1712727272727" y="278.6712727272727" width="41.15745454545455" height="41.15745454545455" fill="#ffffff"/><circle cx="355.46000000000004" cy="288.96000000000004" r="10.29" fill="#5eead4"/><path d="M 365.75 278.67 A 20.58 20.58 0 0 1  386.33 299.25 L 365.75 278.67 A 20.58 20.58 0 0 0 386.33 299.25" fill="#bc53fd"/><path d="M 345.17 299.25 A 20.58 20.58 0 0 0 365.75 319.83 L 365.75 299.25L345.17 299.25" fill="#bc53fd"/><path d="M 365.75 319.83 A 20.58 20.58 0 0 1  386.33 299.25 L 386.33 319.83L365.75 319.83" fill="#bc53fd"/><path d="M 408.89 322.62 A 46.73 46.73 0 0 1  455.62 275.89 L 408.89 322.62 A 46.73 46.73 0 0 0 455.62 275.89" fill="#5eead4"/><path d="M 472.6 273.1 A 52.3 52.3 0 0 1  524.9 325.40000000000003 L 472.6 273.1 A 52.3 52.3 0 0 0 524.9 325.40000000000003" fill="#bc53fd"/><circle cx="565.2449999999999" cy="299.245" r="28.935" fill="#bc53fd"/><path d="M 600.03 330.96999999999997 A 63.44 63.44 0 0 1  663.47 267.53 L 663.47 330.96999999999997L600.03 330.96999999999997" fill="#5eead4"/><rect x="666.064" y="267.064" width="64.372" height="64.372" fill="#ffffff"/><path d="M 666.06 267.06 A 32.19 32.19 0 0 1 698.25 299.25 L 666.06 299.25L666.06 267.06" fill="#5eead4"/><circle cx="714.345" cy="283.155" r="16.095" fill="#5eead4"/><path d="M 666.06 331.44 A 32.19 32.19 0 0 1  698.25 299.25 L 666.06 331.44 A 32.19 32.19 0 0 0 698.25 299.25" fill="#bc53fd"/><path d="M 698.25 331.44 A 32.19 32.19 0 0 1  730.44 299.25 L 698.25 331.44 A 32.19 32.19 0 0 0 730.44 299.25" fill="#5eead4"/><rect x="732.564" y="267.064" width="64.372" height="64.372" fill="#ffffff"/><path d="M 732.56 299.25 A 32.19 32.19 0 0 0 764.75 267.06 L 732.56 267.06L732.56 299.25" fill="#5eead4"/><path d="M 764.75 299.25 A 32.19 32.19 0 0 1  796.94 267.06 L 764.75 299.25 A 32.19 32.19 0 0 0 796.94 267.06" fill="#bc53fd"/><circle cx="748.655" cy="315.345" r="16.095" fill="#5eead4"/><circle cx="780.845" cy="315.345" r="16.095" fill="#5eead4"/><path d="M 799.06 267.06 A 64.37 64.37 0 0 1  863.43 331.43 L 799.06 267.06 A 64.37 64.37 0 0 0 863.43 331.43" fill="#bc53fd"/><path d="M 866.03 330.96999999999997 A 63.44 63.44 0 0 1  929.47 267.53 L 866.03 330.96999999999997 A 63.44 63.44 0 0 0 929.47 267.53" fill="#5eead4"/><rect x="935.3140363636363" y="270.3140363636364" width="57.87192727272727" height="57.87192727272727" fill="#ffffff"/><circle cx="949.78" cy="284.78000000000003" r="14.47" fill="#5eead4"/><path d="M 964.25 270.31 A 28.94 28.94 0 0 1  993.19 299.25 L 964.25 270.31 A 28.94 28.94 0 0 0 993.19 299.25" fill="#5eead4"/><path d="M 935.31 328.19 A 28.94 28.94 0 0 1  964.25 299.25 L 935.31 328.19 A 28.94 28.94 0 0 0 964.25 299.25" fill="#5eead4"/><path d="M 964.25 299.25 A 28.94 28.94 0 0 0 993.19 328.19 L 993.19 299.25L964.25 299.25" fill="#5eead4"/><circle cx="1030.75" cy="299.25" r="26.15" fill="#5eead4"/><circle cx="1097.255" cy="299.255" r="23.365" fill="#bc53fd"/><rect x="1143.1712727272727" y="278.6712727272727" width="41.15745454545455" height="41.15745454545455" fill="#ffffff"/><circle cx="1153.46" cy="288.96000000000004" r="10.29" fill="#bc53fd"/><path d="M 1163.75 278.67 A 20.58 20.58 0 0 1  1184.33 299.25 L 1163.75 278.67 A 20.58 20.58 0 0 0 1184.33 299.25" fill="#5eead4"/><path d="M 1143.17 299.25 A 20.58 20.58 0 0 1 1163.75 319.83 L 1143.17 319.83L1143.17 299.25" fill="#bc53fd"/><path d="M 1163.75 319.83 A 20.58 20.58 0 0 1  1184.33 299.25 L 1184.33 319.83L1163.75 319.83" fill="#bc53fd"/><circle cx="1230.255" cy="299.255" r="17.795" fill="#bc53fd"/><rect x="1281.7427636363636" y="284.24276363636363" width="30.014472727272718" height="30.014472727272718" fill="#ffffff"/><circle cx="1289.2450000000001" cy="291.745" r="7.505" fill="#bc53fd"/><circle cx="1304.255" cy="291.745" r="7.505" fill="#bc53fd"/><circle cx="1289.2450000000001" cy="306.755" r="7.505" fill="#bc53fd"/><path d="M 1296.75 299.25 A 15.01 15.01 0 0 1  1311.76 314.26 L 1296.75 299.25 A 15.01 15.01 0 0 0 1311.76 314.26" fill="#5eead4"/><path d="M 1351.03 311.46999999999997 A 24.44 24.44 0 0 1  1375.47 287.03 L 1351.03 311.46999999999997 A 24.44 24.44 0 0 0 1375.47 287.03" fill="#bc53fd"/><circle cx="1429.745" cy="299.245" r="9.435" fill="#bc53fd"/><path d="M 26.6 372.40000000000003 A 13.3 13.3 0 0 1  39.900000000000006 359.1 L 39.900000000000006 372.40000000000003L26.6 372.40000000000003" fill="#5eead4"/><path d="M 90.2 356.2 A 19.1 19.1 0 0 0 109.30000000000001 375.3 L 109.30000000000001 356.2L90.2 356.2" fill="#bc53fd"/><path d="M 153.8 353.3 A 24.91 24.91 0 0 1  178.71 378.21000000000004 L 153.8 353.3 A 24.91 24.91 0 0 0 178.71 378.21000000000004" fill="#5eead4"/><rect x="217.39454545454547" y="350.39454545454544" width="30.710909090909084" height="30.710909090909084" fill="#ffffff"/><circle cx="225.07" cy="358.07" r="7.68" fill="#bc53fd"/><path d="M 232.75 350.39 A 15.36 15.36 0 0 1 248.11 365.75 L 232.75 365.75L232.75 350.39" fill="#bc53fd"/><circle cx="225.07" cy="373.43" r="7.68" fill="#5eead4"/><circle cx="240.43" cy="373.43" r="7.68" fill="#5eead4"/><rect x="280.9927272727273" y="347.4927272727273" width="36.514545454545456" height="36.514545454545456" fill="#ffffff"/><path d="M 280.99 347.49 A 18.26 18.26 0 0 1  299.25 365.75 L 280.99 347.49 A 18.26 18.26 0 0 0 299.25 365.75" fill="#bc53fd"/><circle cx="308.38" cy="356.62" r="9.13" fill="#5eead4"/><path d="M 280.99 365.75 A 18.26 18.26 0 0 1  299.25 384.01 L 280.99 365.75 A 18.26 18.26 0 0 0 299.25 384.01" fill="#5eead4"/><path d="M 299.25 365.75 A 18.26 18.26 0 0 1  317.51 384.01 L 299.25 365.75 A 18.26 18.26 0 0 0 317.51 384.01" fill="#5eead4"/><rect x="344.59090909090907" y="344.59090909090907" width="42.31818181818183" height="42.31818181818183" fill="#ffffff"/><path d="M 344.59 365.75 A 21.16 21.16 0 0 1  365.75 344.59 L 344.59 365.75 A 21.16 21.16 0 0 0 365.75 344.59" fill="#bc53fd"/><path d="M 365.75 365.75 A 21.16 21.16 0 0 1  386.91 344.59 L 365.75 365.75 A 21.16 21.16 0 0 0 386.91 344.59" fill="#bc53fd"/><circle cx="355.16999999999996" cy="376.33" r="10.58" fill="#bc53fd"/><path d="M 365.75 365.75 A 21.16 21.16 0 0 1  386.91 386.91 L 365.75 365.75 A 21.16 21.16 0 0 0 386.91 386.91" fill="#5eead4"/><path d="M 408.19 341.69 A 48.12 48.12 0 0 1  456.31 389.81 L 408.19 341.69 A 48.12 48.12 0 0 0 456.31 389.81" fill="#bc53fd"/><circle cx="498.755" cy="365.755" r="26.965" fill="#bc53fd"/><path d="M 535.39 335.89 A 59.73 59.73 0 0 1  595.12 395.62 L 535.39 335.89 A 59.73 59.73 0 0 0 595.12 395.62" fill="#bc53fd"/><rect x="598.9836363636364" y="332.9836363636364" width="65.53272727272727" height="65.53272727272727" fill="#ffffff"/><path d="M 598.98 365.75 A 32.77 32.77 0 0 1  631.75 332.98 L 598.98 365.75 A 32.77 32.77 0 0 0 631.75 332.98" fill="#5eead4"/><circle cx="648.135" cy="349.365" r="16.385" fill="#bc53fd"/><circle cx="615.365" cy="382.135" r="16.385" fill="#bc53fd"/><circle cx="648.135" cy="382.135" r="16.385" fill="#5eead4"/><circle cx="698.25" cy="365.75" r="33.25" fill="#5eead4"/><rect x="731.5" y="332.5" width="66.5" height="66.5" fill="#ffffff"/><circle cx="748.125" cy="349.125" r="16.625" fill="#5eead4"/><path d="M 764.75 365.75 A 33.25 33.25 0 0 1  798 332.5 L 764.75 365.75 A 33.25 33.25 0 0 0 798 332.5" fill="#5eead4"/><path d="M 731.5 365.75 A 33.25 33.25 0 0 1  764.75 399 L 731.5 365.75 A 33.25 33.25 0 0 0 764.75 399" fill="#5eead4"/><path d="M 764.75 365.75 A 33.25 33.25 0 0 1  798 399 L 764.75 365.75 A 33.25 33.25 0 0 0 798 399" fill="#bc53fd"/><path d="M 798 399 A 66.5 66.5 0 0 1  864.5 332.5 L 864.5 399L798 399" fill="#5eead4"/><path d="M 864.98 398.51 A 65.53 65.53 0 0 0 930.51 332.98 L 864.98 332.98L864.98 398.51" fill="#bc53fd"/><circle cx="964.255" cy="365.755" r="29.865" fill="#5eead4"/><rect x="1003.7872727272727" y="338.78727272727275" width="53.92545454545454" height="53.92545454545454" fill="#ffffff"/><path d="M 1003.79 338.79 A 26.96 26.96 0 0 1  1030.75 365.75 L 1003.79 338.79 A 26.96 26.96 0 0 0 1030.75 365.75" fill="#bc53fd"/><path d="M 1030.75 338.79 A 26.96 26.96 0 0 1  1057.71 365.75 L 1030.75 338.79 A 26.96 26.96 0 0 0 1057.71 365.75" fill="#bc53fd"/><path d="M 1003.79 392.71 A 26.96 26.96 0 0 1  1030.75 365.75 L 1030.75 392.71L1003.79 392.71" fill="#5eead4"/><path d="M 1030.75 365.75 A 26.96 26.96 0 0 1  1057.71 392.71 L 1030.75 365.75 A 26.96 26.96 0 0 0 1057.71 392.71" fill="#5eead4"/><rect x="1073.189090909091" y="341.6890909090909" width="48.12181818181817" height="48.12181818181817" fill="#ffffff"/><circle cx="1085.22" cy="353.71999999999997" r="12.03" fill="#5eead4"/><path d="M 1097.25 341.69 A 24.06 24.06 0 0 1  1121.31 365.75 L 1097.25 341.69 A 24.06 24.06 0 0 0 1121.31 365.75" fill="#bc53fd"/><path d="M 1073.19 389.81 A 24.06 24.06 0 0 1  1097.25 365.75 L 1073.19 389.81 A 24.06 24.06 0 0 0 1097.25 365.75" fill="#5eead4"/><circle cx="1109.28" cy="377.78" r="12.03" fill="#bc53fd"/><rect x="1142.590909090909" y="344.59090909090907" width="42.31818181818183" height="42.31818181818183" fill="#ffffff"/><path d="M 1142.59 344.59 A 21.16 21.16 0 0 1  1163.75 365.75 L 1142.59 344.59 A 21.16 21.16 0 0 0 1163.75 365.75" fill="#5eead4"/><path d="M 1163.75 344.59 A 21.16 21.16 0 0 1 1184.91 365.75 L 1163.75 365.75L1163.75 344.59" fill="#5eead4"/><path d="M 1142.59 365.75 A 21.16 21.16 0 0 0 1163.75 386.91 L 1163.75 365.75L1142.59 365.75" fill="#bc53fd"/><path d="M 1163.75 365.75 A 21.16 21.16 0 0 1  1184.91 386.91 L 1163.75 365.75 A 21.16 21.16 0 0 0 1184.91 386.91" fill="#5eead4"/><rect x="1211.9927272727273" y="347.4927272727273" width="36.514545454545456" height="36.514545454545456" fill="#ffffff"/><path d="M 1211.99 347.49 A 18.26 18.26 0 0 1 1230.25 365.75 L 1211.99 365.75L1211.99 347.49" fill="#bc53fd"/><path d="M 1230.25 365.75 A 18.26 18.26 0 0 1  1248.51 347.49 L 1248.51 365.75L1230.25 365.75" fill="#5eead4"/><path d="M 1211.99 384.01 A 18.26 18.26 0 0 1  1230.25 365.75 L 1211.99 384.01 A 18.26 18.26 0 0 0 1230.25 365.75" fill="#bc53fd"/><path d="M 1230.25 365.75 A 18.26 18.26 0 0 1  1248.51 384.01 L 1230.25 365.75 A 18.26 18.26 0 0 0 1248.51 384.01" fill="#5eead4"/><path d="M 1281.39 381.09999999999997 A 30.71 30.71 0 0 1  1312.1000000000001 350.39 L 1281.39 381.09999999999997 A 30.71 30.71 0 0 0 1312.1000000000001 350.39" fill="#bc53fd"/><rect x="1350.7963636363636" y="353.29636363636365" width="24.90727272727272" height="24.90727272727272" fill="#ffffff"/><path d="M 1350.8 353.3 A 12.45 12.45 0 0 1  1363.25 365.75 L 1350.8 353.3 A 12.45 12.45 0 0 0 1363.25 365.75" fill="#bc53fd"/><circle cx="1369.475" cy="359.52500000000003" r="6.225" fill="#bc53fd"/><path d="M 1350.8 365.75 A 12.45 12.45 0 0 1 1363.25 378.2 L 1350.8 378.2L1350.8 365.75" fill="#5eead4"/><circle cx="1369.475" cy="371.975" r="6.225" fill="#5eead4"/><circle cx="1429.75" cy="365.75" r="9.55" fill="#bc53fd"/><path d="M 26.6 438.90000000000003 A 13.3 13.3 0 0 1  39.900000000000006 425.6 L 39.900000000000006 438.90000000000003L26.6 438.90000000000003" fill="#5eead4"/><path d="M 90.31 422.81 A 18.87 18.87 0 0 1  109.18 441.68 L 90.31 422.81 A 18.87 18.87 0 0 0 109.18 441.68" fill="#bc53fd"/><rect x="154.0285090909091" y="420.0285090909091" width="24.442981818181813" height="24.442981818181813" fill="#ffffff"/><circle cx="160.14000000000001" cy="426.14" r="6.11" fill="#bc53fd"/><path d="M 166.25 432.25 A 12.22 12.22 0 0 1  178.47 420.03 L 166.25 432.25 A 12.22 12.22 0 0 0 178.47 420.03" fill="#bc53fd"/><path d="M 154.03 432.25 A 12.22 12.22 0 0 0 166.25 444.47 L 166.25 432.25L154.03 432.25" fill="#5eead4"/><circle cx="172.36" cy="438.36" r="6.11" fill="#5eead4"/><path d="M 217.74 417.24 A 30.01 30.01 0 0 0 247.75 447.25 L 247.75 417.24L217.74 417.24" fill="#bc53fd"/><rect x="281.45701818181817" y="414.45701818181817" width="35.58596363636363" height="35.58596363636363" fill="#ffffff"/><path d="M 281.46 414.46 A 17.79 17.79 0 0 1  299.25 432.25 L 281.46 414.46 A 17.79 17.79 0 0 0 299.25 432.25" fill="#bc53fd"/><circle cx="308.145" cy="423.35499999999996" r="8.895" fill="#bc53fd"/><path d="M 281.46 432.25 A 17.79 17.79 0 0 1  299.25 450.04 L 281.46 432.25 A 17.79 17.79 0 0 0 299.25 450.04" fill="#5eead4"/><path d="M 299.25 432.25 A 17.79 17.79 0 0 1  317.04 450.04 L 299.25 432.25 A 17.79 17.79 0 0 0 317.04 450.04" fill="#bc53fd"/><path d="M 345.17 411.67 A 41.16 41.16 0 0 1 386.33000000000004 452.83000000000004 L 345.17 452.83000000000004L345.17 411.67" fill="#bc53fd"/><path d="M 408.89 455.62 A 46.73 46.73 0 0 1  455.62 408.89 L 408.89 455.62 A 46.73 46.73 0 0 0 455.62 408.89" fill="#5eead4"/><circle cx="498.75" cy="432.25" r="26.15" fill="#5eead4"/><path d="M 536.31 403.31 A 57.87 57.87 0 0 1 594.18 461.18 L 536.31 461.18L536.31 403.31" fill="#5eead4"/><rect x="600.0282909090909" y="400.5282909090909" width="63.443418181818174" height="63.443418181818174" fill="#ffffff"/><circle cx="615.89" cy="416.39" r="15.86" fill="#bc53fd"/><path d="M 631.75 400.53 A 31.72 31.72 0 0 1  663.47 432.25 L 631.75 400.53 A 31.72 31.72 0 0 0 663.47 432.25" fill="#bc53fd"/><path d="M 600.03 463.97 A 31.72 31.72 0 0 1  631.75 432.25 L 600.03 463.97 A 31.72 31.72 0 0 0 631.75 432.25" fill="#5eead4"/><path d="M 631.75 463.97 A 31.72 31.72 0 0 1  663.47 432.25 L 631.75 463.97 A 31.72 31.72 0 0 0 663.47 432.25" fill="#5eead4"/><path d="M 666.06 400.06 A 64.37 64.37 0 0 1  730.43 464.43 L 666.06 400.06 A 64.37 64.37 0 0 0 730.43 464.43" fill="#5eead4"/><path d="M 732.56 400.06 A 64.37 64.37 0 0 1  796.93 464.43 L 732.56 400.06 A 64.37 64.37 0 0 0 796.93 464.43" fill="#5eead4"/><rect x="799.064" y="400.064" width="64.372" height="64.372" fill="#ffffff"/><circle cx="815.155" cy="416.155" r="16.095" fill="#5eead4"/><circle cx="847.345" cy="416.155" r="16.095" fill="#5eead4"/><path d="M 799.06 464.44 A 32.19 32.19 0 0 1  831.25 432.25 L 799.06 464.44 A 32.19 32.19 0 0 0 831.25 432.25" fill="#bc53fd"/><path d="M 831.25 464.44 A 32.19 32.19 0 0 1  863.44 432.25 L 831.25 464.44 A 32.19 32.19 0 0 0 863.44 432.25" fill="#bc53fd"/><rect x="866.0282909090909" y="400.5282909090909" width="63.443418181818174" height="63.443418181818174" fill="#ffffff"/><path d="M 866.03 432.25 A 31.72 31.72 0 0 1  897.75 400.53 L 897.75 432.25L866.03 432.25" fill="#5eead4"/><path d="M 897.75 400.53 A 31.72 31.72 0 0 1  929.47 432.25 L 897.75 400.53 A 31.72 31.72 0 0 0 929.47 432.25" fill="#bc53fd"/><circle cx="881.89" cy="448.11" r="15.86" fill="#5eead4"/><circle cx="913.61" cy="448.11" r="15.86" fill="#bc53fd"/><path d="M 935.31 461.18 A 57.87 57.87 0 0 1  993.18 403.31 L 935.31 461.18 A 57.87 57.87 0 0 0 993.18 403.31" fill="#5eead4"/><rect x="1004.5997818181818" y="406.09978181818184" width="52.300436363636365" height="52.300436363636365" fill="#ffffff"/><path d="M 1004.6 432.25 A 26.15 26.15 0 0 0 1030.75 406.1 L 1004.6 406.1L1004.6 432.25" fill="#bc53fd"/><path d="M 1030.75 406.1 A 26.15 26.15 0 0 0 1056.9 432.25 L 1056.9 406.1L1030.75 406.1" fill="#5eead4"/><circle cx="1017.6750000000001" cy="445.325" r="13.075" fill="#5eead4"/><path d="M 1030.75 432.25 A 26.15 26.15 0 0 0 1056.9 458.4 L 1056.9 432.25L1030.75 432.25" fill="#5eead4"/><path d="M 1073.89 455.62 A 46.73 46.73 0 0 1  1120.6200000000001 408.89 L 1073.89 455.62 A 46.73 46.73 0 0 0 1120.6200000000001 408.89" fill="#bc53fd"/><path d="M 1143.17 411.67 A 41.16 41.16 0 0 1 1184.3300000000002 452.83000000000004 L 1143.17 452.83000000000004L1143.17 411.67" fill="#5eead4"/><path d="M 1212.46 450.04999999999995 A 35.59 35.59 0 0 0 1248.05 414.46 L 1212.46 414.46L1212.46 450.04999999999995" fill="#bc53fd"/><rect x="1281.7427636363636" y="417.24276363636363" width="30.014472727272718" height="30.014472727272718" fill="#ffffff"/><circle cx="1289.2450000000001" cy="424.745" r="7.505" fill="#5eead4"/><path d="M 1296.75 432.25 A 15.01 15.01 0 0 1  1311.76 417.24 L 1296.75 432.25 A 15.01 15.01 0 0 0 1311.76 417.24" fill="#bc53fd"/><path d="M 1281.74 432.25 A 15.01 15.01 0 0 1  1296.75 447.26 L 1281.74 432.25 A 15.01 15.01 0 0 0 1296.75 447.26" fill="#bc53fd"/><circle cx="1304.255" cy="439.755" r="7.505" fill="#5eead4"/><rect x="1351.028509090909" y="420.0285090909091" width="24.442981818181813" height="24.442981818181813" fill="#ffffff"/><path d="M 1351.03 420.03 A 12.22 12.22 0 0 1  1363.25 432.25 L 1351.03 420.03 A 12.22 12.22 0 0 0 1363.25 432.25" fill="#5eead4"/><circle cx="1369.36" cy="426.14" r="6.11" fill="#bc53fd"/><path d="M 1351.03 432.25 A 12.22 12.22 0 0 1  1363.25 444.47 L 1351.03 432.25 A 12.22 12.22 0 0 0 1363.25 444.47" fill="#5eead4"/><circle cx="1369.36" cy="438.36" r="6.11" fill="#bc53fd"/><path d="M 1420.31 422.81 A 18.87 18.87 0 0 1 1439.1799999999998 441.68 L 1420.31 441.68L1420.31 422.81" fill="#5eead4"/><path d="M 26.6 492.1 A 13.3 13.3 0 0 0 39.900000000000006 505.40000000000003 L 39.900000000000006 492.1L26.6 492.1" fill="#bc53fd"/><rect x="91.01069090909091" y="490.0106909090909" width="17.478618181818177" height="17.478618181818177" fill="#ffffff"/><path d="M 91.01 498.75 A 8.74 8.74 0 0 1  99.75 490.01 L 91.01 498.75 A 8.74 8.74 0 0 0 99.75 490.01" fill="#5eead4"/><path d="M 99.75 498.75 A 8.74 8.74 0 0 0 108.49 490.01 L 99.75 490.01L99.75 498.75" fill="#bc53fd"/><path d="M 91.01 498.75 A 8.74 8.74 0 0 1  99.75 507.49 L 91.01 498.75 A 8.74 8.74 0 0 0 99.75 507.49" fill="#5eead4"/><circle cx="104.12" cy="503.12" r="4.37" fill="#5eead4"/><rect x="155.42138181818183" y="487.9213818181818" width="21.657236363636358" height="21.657236363636358" fill="#ffffff"/><circle cx="160.83499999999998" cy="493.33500000000004" r="5.415" fill="#bc53fd"/><path d="M 166.25 498.75 A 10.83 10.83 0 0 1  177.08 487.92 L 166.25 498.75 A 10.83 10.83 0 0 0 177.08 487.92" fill="#bc53fd"/><circle cx="160.83499999999998" cy="504.165" r="5.415" fill="#5eead4"/><path d="M 166.25 509.58 A 10.83 10.83 0 0 1  177.08 498.75 L 166.25 509.58 A 10.83 10.83 0 0 0 177.08 498.75" fill="#5eead4"/><path d="M 219.83 485.83 A 25.84 25.84 0 0 1  245.67000000000002 511.66999999999996 L 219.83 485.83 A 25.84 25.84 0 0 0 245.67000000000002 511.66999999999996" fill="#bc53fd"/><rect x="284.24276363636363" y="483.74276363636363" width="30.014472727272725" height="30.014472727272725" fill="#ffffff"/><circle cx="291.745" cy="491.245" r="7.505" fill="#5eead4"/><path d="M 299.25 498.75 A 15.01 15.01 0 0 1  314.26 483.74 L 299.25 498.75 A 15.01 15.01 0 0 0 314.26 483.74" fill="#bc53fd"/><circle cx="291.745" cy="506.255" r="7.505" fill="#5eead4"/><path d="M 299.25 513.76 A 15.01 15.01 0 0 1  314.26 498.75 L 299.25 513.76 A 15.01 15.01 0 0 0 314.26 498.75" fill="#5eead4"/><path d="M 348.65 481.65 A 34.19 34.19 0 0 1  382.84 515.8399999999999 L 348.65 481.65 A 34.19 34.19 0 0 0 382.84 515.8399999999999" fill="#5eead4"/><path d="M 413.06 517.93 A 38.37 38.37 0 0 1  451.43 479.56 L 413.06 517.93 A 38.37 38.37 0 0 0 451.43 479.56" fill="#5eead4"/><path d="M 477.47 520.02 A 42.55 42.55 0 0 1  520.02 477.47 L 477.47 520.02 A 42.55 42.55 0 0 0 520.02 477.47" fill="#5eead4"/><rect x="541.8855272727272" y="475.38552727272724" width="46.72894545454545" height="46.72894545454545" fill="#ffffff"/><path d="M 541.89 498.75 A 23.36 23.36 0 0 1  565.25 475.39 L 541.89 498.75 A 23.36 23.36 0 0 0 565.25 475.39" fill="#5eead4"/><path d="M 565.25 475.39 A 23.36 23.36 0 0 1  588.61 498.75 L 565.25 475.39 A 23.36 23.36 0 0 0 588.61 498.75" fill="#bc53fd"/><path d="M 541.89 498.75 A 23.36 23.36 0 0 1  565.25 522.11 L 541.89 498.75 A 23.36 23.36 0 0 0 565.25 522.11" fill="#bc53fd"/><circle cx="576.93" cy="510.43" r="11.68" fill="#5eead4"/><circle cx="631.755" cy="498.755" r="25.455" fill="#5eead4"/><rect x="672.448" y="472.948" width="51.604" height="51.604" fill="#ffffff"/><path d="M 672.45 472.95 A 25.8 25.8 0 0 1  698.25 498.75 L 672.45 472.95 A 25.8 25.8 0 0 0 698.25 498.75" fill="#bc53fd"/><circle cx="711.15" cy="485.84999999999997" r="12.9" fill="#bc53fd"/><path d="M 672.45 498.75 A 25.8 25.8 0 0 1  698.25 524.55 L 672.45 498.75 A 25.8 25.8 0 0 0 698.25 524.55" fill="#5eead4"/><path d="M 698.25 498.75 A 25.8 25.8 0 0 1  724.05 524.55 L 698.25 498.75 A 25.8 25.8 0 0 0 724.05 524.55" fill="#5eead4"/><rect x="738.948" y="472.948" width="51.604" height="51.604" fill="#ffffff"/><path d="M 738.95 498.75 A 25.8 25.8 0 0 1  764.75 472.95 L 738.95 498.75 A 25.8 25.8 0 0 0 764.75 472.95" fill="#5eead4"/><circle cx="777.65" cy="485.84999999999997" r="12.9" fill="#bc53fd"/><path d="M 738.95 524.55 A 25.8 25.8 0 0 1  764.75 498.75 L 738.95 524.55 A 25.8 25.8 0 0 0 764.75 498.75" fill="#bc53fd"/><circle cx="777.65" cy="511.65" r="12.9" fill="#bc53fd"/><rect x="805.448" y="472.948" width="51.604" height="51.604" fill="#ffffff"/><path d="M 805.45 498.75 A 25.8 25.8 0 0 1  831.25 472.95 L 805.45 498.75 A 25.8 25.8 0 0 0 831.25 472.95" fill="#bc53fd"/><circle cx="844.15" cy="485.84999999999997" r="12.9" fill="#bc53fd"/><path d="M 805.45 498.75 A 25.8 25.8 0 0 1  831.25 524.55 L 805.45 498.75 A 25.8 25.8 0 0 0 831.25 524.55" fill="#bc53fd"/><path d="M 831.25 524.55 A 25.8 25.8 0 0 1  857.05 498.75 L 831.25 524.55 A 25.8 25.8 0 0 0 857.05 498.75" fill="#bc53fd"/><circle cx="897.755" cy="498.755" r="25.455" fill="#bc53fd"/><path d="M 940.89 475.39 A 46.73 46.73 0 0 0 987.62 522.12 L 987.62 475.39L940.89 475.39" fill="#5eead4"/><rect x="1009.4748363636363" y="477.47483636363637" width="42.55032727272727" height="42.55032727272727" fill="#ffffff"/><path d="M 1009.47 498.75 A 21.28 21.28 0 0 1  1030.75 477.47 L 1030.75 498.75L1009.47 498.75" fill="#bc53fd"/><circle cx="1041.39" cy="488.11" r="10.64" fill="#bc53fd"/><circle cx="1020.11" cy="509.39" r="10.64" fill="#5eead4"/><path d="M 1030.75 498.75 A 21.28 21.28 0 0 1 1052.03 520.03 L 1030.75 520.03L1030.75 498.75" fill="#5eead4"/><circle cx="1097.245" cy="498.745" r="19.185" fill="#bc53fd"/><path d="M 1146.65 515.8399999999999 A 34.19 34.19 0 0 1  1180.8400000000001 481.65 L 1146.65 515.8399999999999 A 34.19 34.19 0 0 0 1180.8400000000001 481.65" fill="#5eead4"/><rect x="1215.2427636363636" y="483.74276363636363" width="30.014472727272725" height="30.014472727272725" fill="#ffffff"/><circle cx="1222.7450000000001" cy="491.245" r="7.505" fill="#5eead4"/><path d="M 1230.25 498.75 A 15.01 15.01 0 0 1  1245.26 483.74 L 1230.25 498.75 A 15.01 15.01 0 0 0 1245.26 483.74" fill="#bc53fd"/><path d="M 1215.24 513.76 A 15.01 15.01 0 0 1  1230.25 498.75 L 1215.24 513.76 A 15.01 15.01 0 0 0 1230.25 498.75" fill="#bc53fd"/><path d="M 1230.25 513.76 A 15.01 15.01 0 0 1  1245.26 498.75 L 1230.25 513.76 A 15.01 15.01 0 0 0 1245.26 498.75" fill="#bc53fd"/><circle cx="1296.75" cy="498.75" r="12.92" fill="#bc53fd"/><rect x="1352.4213818181818" y="487.9213818181818" width="21.657236363636358" height="21.657236363636358" fill="#ffffff"/><path d="M 1352.42 487.92 A 10.83 10.83 0 0 1  1363.25 498.75 L 1352.42 487.92 A 10.83 10.83 0 0 0 1363.25 498.75" fill="#bc53fd"/><path d="M 1363.25 487.92 A 10.83 10.83 0 0 1 1374.08 498.75 L 1363.25 498.75L1363.25 487.92" fill="#5eead4"/><circle cx="1357.835" cy="504.165" r="5.415" fill="#bc53fd"/><path d="M 1363.25 498.75 A 10.83 10.83 0 0 1  1374.08 509.58 L 1363.25 498.75 A 10.83 10.83 0 0 0 1374.08 509.58" fill="#bc53fd"/><path d="M 1421.01 490.01 A 17.48 17.48 0 0 1  1438.49 507.49 L 1421.01 490.01 A 17.48 17.48 0 0 0 1438.49 507.49" fill="#5eead4"/><path d="M 26.6 558.6 A 13.3 13.3 0 0 1  39.900000000000006 571.9 L 26.6 558.6 A 13.3 13.3 0 0 0 39.900000000000006 571.9" fill="#bc53fd"/><rect x="91.70712727272728" y="557.2071272727272" width="16.085745454545453" height="16.085745454545453" fill="#ffffff"/><circle cx="95.72999999999999" cy="561.23" r="4.02" fill="#5eead4"/><path d="M 99.75 565.25 A 8.04 8.04 0 0 0 107.78999999999999 557.21 L 99.75 557.21L99.75 565.25" fill="#bc53fd"/><path d="M 91.71 565.25 A 8.04 8.04 0 0 1  99.75 573.29 L 91.71 565.25 A 8.04 8.04 0 0 0 99.75 573.29" fill="#bc53fd"/><circle cx="103.77" cy="569.27" r="4.02" fill="#bc53fd"/><circle cx="166.245" cy="565.2449999999999" r="9.435" fill="#bc53fd"/><rect x="221.92138181818183" y="554.4213818181818" width="21.657236363636358" height="21.657236363636358" fill="#ffffff"/><circle cx="227.33499999999998" cy="559.8349999999999" r="5.415" fill="#5eead4"/><path d="M 232.75 554.42 A 10.83 10.83 0 0 1  243.58 565.25 L 232.75 554.42 A 10.83 10.83 0 0 0 243.58 565.25" fill="#bc53fd"/><path d="M 221.92 565.25 A 10.83 10.83 0 0 1  232.75 576.08 L 221.92 565.25 A 10.83 10.83 0 0 0 232.75 576.08" fill="#bc53fd"/><path d="M 232.75 576.08 A 10.83 10.83 0 0 1  243.58 565.25 L 232.75 576.08 A 10.83 10.83 0 0 0 243.58 565.25" fill="#bc53fd"/><rect x="287.0285090909091" y="553.0285090909091" width="24.442981818181813" height="24.442981818181813" fill="#ffffff"/><path d="M 287.03 565.25 A 12.22 12.22 0 0 1  299.25 553.03 L 299.25 565.25L287.03 565.25" fill="#bc53fd"/><circle cx="305.36" cy="559.14" r="6.11" fill="#bc53fd"/><path d="M 287.03 565.25 A 12.22 12.22 0 0 1  299.25 577.47 L 287.03 565.25 A 12.22 12.22 0 0 0 299.25 577.47" fill="#5eead4"/><path d="M 299.25 577.47 A 12.22 12.22 0 0 1  311.47 565.25 L 299.25 577.47 A 12.22 12.22 0 0 0 311.47 565.25" fill="#bc53fd"/><path d="M 352.14 551.64 A 27.23 27.23 0 0 1 379.37 578.87 L 352.14 578.87L352.14 551.64" fill="#bc53fd"/><rect x="417.24276363636363" y="550.2427636363636" width="30.014472727272718" height="30.014472727272718" fill="#ffffff"/><path d="M 417.24 550.24 A 15.01 15.01 0 0 0 432.25 565.25 L 432.25 550.24L417.24 550.24" fill="#5eead4"/><circle cx="439.755" cy="557.745" r="7.505" fill="#5eead4"/><path d="M 417.24 580.26 A 15.01 15.01 0 0 1  432.25 565.25 L 417.24 580.26 A 15.01 15.01 0 0 0 432.25 565.25" fill="#5eead4"/><path d="M 432.25 565.25 A 15.01 15.01 0 0 1  447.26 580.26 L 432.25 565.25 A 15.01 15.01 0 0 0 447.26 580.26" fill="#bc53fd"/><path d="M 482.35 548.85 A 32.8 32.8 0 0 1  515.15 581.65 L 482.35 548.85 A 32.8 32.8 0 0 0 515.15 581.65" fill="#bc53fd"/><path d="M 547.46 547.46 A 35.59 35.59 0 0 1 583.0500000000001 583.0500000000001 L 547.46 583.0500000000001L547.46 547.46" fill="#bc53fd"/><path d="M 612.56 584.43 A 38.37 38.37 0 0 1  650.93 546.06 L 612.56 584.43 A 38.37 38.37 0 0 0 650.93 546.06" fill="#bc53fd"/><rect x="678.832" y="545.832" width="38.836" height="38.836" fill="#ffffff"/><path d="M 678.83 545.83 A 19.42 19.42 0 0 0 698.25 565.25 L 698.25 545.83L678.83 545.83" fill="#5eead4"/><path d="M 698.25 565.25 A 19.42 19.42 0 0 0 717.67 545.83 L 698.25 545.83L698.25 565.25" fill="#5eead4"/><path d="M 678.83 565.25 A 19.42 19.42 0 0 1  698.25 584.67 L 678.83 565.25 A 19.42 19.42 0 0 0 698.25 584.67" fill="#5eead4"/><circle cx="707.96" cy="574.96" r="9.71" fill="#5eead4"/><path d="M 745.33 584.6700000000001 A 38.84 38.84 0 0 0 784.1700000000001 545.83 L 745.33 545.83L745.33 584.6700000000001" fill="#bc53fd"/><path d="M 811.83 584.6700000000001 A 38.84 38.84 0 0 1  850.6700000000001 545.83 L 811.83 584.6700000000001 A 38.84 38.84 0 0 0 850.6700000000001 545.83" fill="#bc53fd"/><path d="M 878.56 546.06 A 38.37 38.37 0 0 0 916.93 584.43 L 916.93 546.06L878.56 546.06" fill="#5eead4"/><rect x="946.4570181818182" y="547.4570181818182" width="35.58596363636363" height="35.58596363636363" fill="#ffffff"/><path d="M 946.46 547.46 A 17.79 17.79 0 0 1  964.25 565.25 L 946.46 547.46 A 17.79 17.79 0 0 0 964.25 565.25" fill="#5eead4"/><path d="M 964.25 565.25 A 17.79 17.79 0 0 1  982.04 547.46 L 964.25 565.25 A 17.79 17.79 0 0 0 982.04 547.46" fill="#5eead4"/><path d="M 946.46 565.25 A 17.79 17.79 0 0 0 964.25 583.04 L 964.25 565.25L946.46 565.25" fill="#bc53fd"/><circle cx="973.145" cy="574.145" r="8.895" fill="#bc53fd"/><circle cx="1030.75" cy="565.25" r="16.4" fill="#bc53fd"/><rect x="1082.2427636363636" y="550.2427636363636" width="30.014472727272718" height="30.014472727272718" fill="#ffffff"/><circle cx="1089.7450000000001" cy="557.745" r="7.505" fill="#5eead4"/><circle cx="1104.755" cy="557.745" r="7.505" fill="#5eead4"/><path d="M 1082.24 565.25 A 15.01 15.01 0 0 1  1097.25 580.26 L 1082.24 565.25 A 15.01 15.01 0 0 0 1097.25 580.26" fill="#bc53fd"/><circle cx="1104.755" cy="572.755" r="7.505" fill="#bc53fd"/><rect x="1150.1356363636364" y="551.6356363636364" width="27.22872727272727" height="27.22872727272727" fill="#ffffff"/><path d="M 1150.14 551.64 A 13.61 13.61 0 0 1 1163.75 565.25 L 1150.14 565.25L1150.14 551.64" fill="#bc53fd"/><circle cx="1170.555" cy="558.4449999999999" r="6.805" fill="#5eead4"/><path d="M 1150.14 578.86 A 13.61 13.61 0 0 1  1163.75 565.25 L 1163.75 578.86L1150.14 578.86" fill="#5eead4"/><circle cx="1170.555" cy="572.055" r="6.805" fill="#5eead4"/><rect x="1218.028509090909" y="553.0285090909091" width="24.442981818181813" height="24.442981818181813" fill="#ffffff"/><circle cx="1224.1399999999999" cy="559.14" r="6.11" fill="#5eead4"/><path d="M 1230.25 565.25 A 12.22 12.22 0 0 1  1242.47 553.03 L 1230.25 565.25 A 12.22 12.22 0 0 0 1242.47 553.03" fill="#bc53fd"/><circle cx="1224.1399999999999" cy="571.36" r="6.11" fill="#5eead4"/><path d="M 1230.25 565.25 A 12.22 12.22 0 0 1  1242.47 577.47 L 1230.25 565.25 A 12.22 12.22 0 0 0 1242.47 577.47" fill="#bc53fd"/><path d="M 1285.92 576.0799999999999 A 21.66 21.66 0 0 1  1307.5800000000002 554.42 L 1285.92 576.0799999999999 A 21.66 21.66 0 0 0 1307.5800000000002 554.42" fill="#5eead4"/><rect x="1353.8142545454546" y="555.8142545454546" width="18.87149090909091" height="18.87149090909091" fill="#ffffff"/><path d="M 1353.81 555.81 A 9.44 9.44 0 0 1  1363.25 565.25 L 1353.81 555.81 A 9.44 9.44 0 0 0 1363.25 565.25" fill="#5eead4"/><path d="M 1363.25 555.81 A 9.44 9.44 0 0 1  1372.69 565.25 L 1363.25 555.81 A 9.44 9.44 0 0 0 1372.69 565.25" fill="#bc53fd"/><circle cx="1358.53" cy="569.97" r="4.72" fill="#bc53fd"/><path d="M 1363.25 574.69 A 9.44 9.44 0 0 1  1372.69 565.25 L 1363.25 574.69 A 9.44 9.44 0 0 0 1372.69 565.25" fill="#bc53fd"/><circle cx="1429.755" cy="565.255" r="8.045" fill="#5eead4"/><rect x="26.6" y="625.1" width="13.299999999999997" height="13.299999999999997" fill="#ffffff"/><circle cx="29.925" cy="628.4250000000001" r="3.325" fill="#bc53fd"/><circle cx="36.575" cy="628.4250000000001" r="3.325" fill="#bc53fd"/><circle cx="29.925" cy="635.075" r="3.325" fill="#5eead4"/><path d="M 33.25 631.75 A 6.65 6.65 0 0 1  39.9 638.4 L 33.25 631.75 A 6.65 6.65 0 0 0 39.9 638.4" fill="#bc53fd"/><rect x="92.40356363636363" y="624.4035636363636" width="14.692872727272729" height="14.692872727272729" fill="#ffffff"/><circle cx="96.075" cy="628.0749999999999" r="3.675" fill="#5eead4"/><path d="M 99.75 631.75 A 7.35 7.35 0 0 1  107.1 624.4 L 99.75 631.75 A 7.35 7.35 0 0 0 107.1 624.4" fill="#bc53fd"/><circle cx="96.075" cy="635.425" r="3.675" fill="#bc53fd"/><path d="M 99.75 639.1 A 7.35 7.35 0 0 1  107.1 631.75 L 99.75 639.1 A 7.35 7.35 0 0 0 107.1 631.75" fill="#bc53fd"/><path d="M 158.21 639.8000000000001 A 16.09 16.09 0 0 1  174.3 623.71 L 158.21 639.8000000000001 A 16.09 16.09 0 0 0 174.3 623.71" fill="#bc53fd"/><rect x="224.0106909090909" y="623.010690909091" width="17.478618181818177" height="17.478618181818177" fill="#ffffff"/><circle cx="228.38" cy="627.38" r="4.37" fill="#bc53fd"/><path d="M 232.75 623.01 A 8.74 8.74 0 0 1  241.49 631.75 L 232.75 623.01 A 8.74 8.74 0 0 0 241.49 631.75" fill="#5eead4"/><circle cx="228.38" cy="636.12" r="4.37" fill="#bc53fd"/><circle cx="237.12" cy="636.12" r="4.37" fill="#bc53fd"/><rect x="289.81425454545456" y="622.3142545454546" width="18.87149090909091" height="18.87149090909091" fill="#ffffff"/><circle cx="294.53000000000003" cy="627.03" r="4.72" fill="#5eead4"/><circle cx="303.97" cy="627.03" r="4.72" fill="#5eead4"/><path d="M 289.81 641.19 A 9.44 9.44 0 0 1  299.25 631.75 L 289.81 641.19 A 9.44 9.44 0 0 0 299.25 631.75" fill="#bc53fd"/><path d="M 299.25 641.19 A 9.44 9.44 0 0 0 308.69 631.75 L 299.25 631.75L299.25 641.19" fill="#bc53fd"/><rect x="355.61781818181817" y="621.6178181818182" width="20.264363636363633" height="20.264363636363633" fill="#ffffff"/><path d="M 355.62 621.62 A 10.13 10.13 0 0 1  365.75 631.75 L 355.62 621.62 A 10.13 10.13 0 0 0 365.75 631.75" fill="#bc53fd"/><circle cx="370.815" cy="626.6850000000001" r="5.065" fill="#bc53fd"/><path d="M 355.62 631.75 A 10.13 10.13 0 0 1  365.75 641.88 L 355.62 631.75 A 10.13 10.13 0 0 0 365.75 641.88" fill="#5eead4"/><path d="M 365.75 641.88 A 10.13 10.13 0 0 1  375.88 631.75 L 365.75 641.88 A 10.13 10.13 0 0 0 375.88 631.75" fill="#bc53fd"/><rect x="421.4213818181818" y="620.9213818181818" width="21.657236363636358" height="21.657236363636358" fill="#ffffff"/><path d="M 421.42 620.92 A 10.83 10.83 0 0 1  432.25 631.75 L 421.42 620.92 A 10.83 10.83 0 0 0 432.25 631.75" fill="#bc53fd"/><path d="M 432.25 631.75 A 10.83 10.83 0 0 1  443.08 620.92 L 443.08 631.75L432.25 631.75" fill="#5eead4"/><path d="M 421.42 631.75 A 10.83 10.83 0 0 1  432.25 642.58 L 421.42 631.75 A 10.83 10.83 0 0 0 432.25 642.58" fill="#bc53fd"/><circle cx="437.665" cy="637.165" r="5.415" fill="#bc53fd"/><rect x="487.22494545454543" y="620.2249454545455" width="23.050109090909082" height="23.050109090909082" fill="#ffffff"/><circle cx="492.985" cy="625.985" r="5.765" fill="#5eead4"/><path d="M 498.75 631.75 A 11.53 11.53 0 0 1  510.28 620.22 L 510.28 631.75L498.75 631.75" fill="#5eead4"/><circle cx="492.985" cy="637.515" r="5.765" fill="#bc53fd"/><path d="M 498.75 643.28 A 11.53 11.53 0 0 1  510.28 631.75 L 510.28 643.28L498.75 643.28" fill="#5eead4"/><rect x="553.0285090909091" y="619.5285090909091" width="24.442981818181813" height="24.442981818181813" fill="#ffffff"/><path d="M 553.03 631.75 A 12.22 12.22 0 0 1  565.25 619.53 L 553.03 631.75 A 12.22 12.22 0 0 0 565.25 619.53" fill="#bc53fd"/><path d="M 565.25 631.75 A 12.22 12.22 0 0 1  577.47 619.53 L 565.25 631.75 A 12.22 12.22 0 0 0 577.47 619.53" fill="#bc53fd"/><path d="M 553.03 643.97 A 12.22 12.22 0 0 1  565.25 631.75 L 553.03 643.97 A 12.22 12.22 0 0 0 565.25 631.75" fill="#5eead4"/><circle cx="571.36" cy="637.86" r="6.11" fill="#5eead4"/><rect x="618.8320727272727" y="618.8320727272727" width="25.835854545454538" height="25.835854545454538" fill="#ffffff"/><path d="M 618.83 618.83 A 12.92 12.92 0 0 1  631.75 631.75 L 618.83 618.83 A 12.92 12.92 0 0 0 631.75 631.75" fill="#bc53fd"/><circle cx="638.21" cy="625.2900000000001" r="6.46" fill="#5eead4"/><circle cx="625.2900000000001" cy="638.21" r="6.46" fill="#bc53fd"/><path d="M 631.75 644.67 A 12.92 12.92 0 0 0 644.67 631.75 L 631.75 631.75L631.75 644.67" fill="#5eead4"/><rect x="685.216" y="618.716" width="26.06799999999999" height="26.06799999999999" fill="#ffffff"/><circle cx="691.735" cy="625.235" r="6.515" fill="#bc53fd"/><path d="M 698.25 631.75 A 13.03 13.03 0 0 1  711.28 618.72 L 711.28 631.75L698.25 631.75" fill="#bc53fd"/><path d="M 685.22 631.75 A 13.03 13.03 0 0 0 698.25 644.78 L 698.25 631.75L685.22 631.75" fill="#5eead4"/><circle cx="704.765" cy="638.265" r="6.515" fill="#5eead4"/><rect x="751.716" y="618.716" width="26.06799999999999" height="26.06799999999999" fill="#ffffff"/><circle cx="758.235" cy="625.235" r="6.515" fill="#bc53fd"/><path d="M 764.75 618.72 A 13.03 13.03 0 0 1  777.78 631.75 L 764.75 618.72 A 13.03 13.03 0 0 0 777.78 631.75" fill="#5eead4"/><path d="M 751.72 631.75 A 13.03 13.03 0 0 1  764.75 644.78 L 751.72 631.75 A 13.03 13.03 0 0 0 764.75 644.78" fill="#bc53fd"/><path d="M 764.75 644.78 A 13.03 13.03 0 0 1  777.78 631.75 L 764.75 644.78 A 13.03 13.03 0 0 0 777.78 631.75" fill="#bc53fd"/><path d="M 818.22 644.7900000000001 A 26.07 26.07 0 0 1  844.2900000000001 618.72 L 818.22 644.7900000000001 A 26.07 26.07 0 0 0 844.2900000000001 618.72" fill="#5eead4"/><rect x="884.8320727272727" y="618.8320727272727" width="25.835854545454538" height="25.835854545454538" fill="#ffffff"/><circle cx="891.2900000000001" cy="625.2900000000001" r="6.46" fill="#bc53fd"/><path d="M 897.75 618.83 A 12.92 12.92 0 0 1  910.67 631.75 L 897.75 618.83 A 12.92 12.92 0 0 0 910.67 631.75" fill="#bc53fd"/><circle cx="891.2900000000001" cy="638.21" r="6.46" fill="#5eead4"/><path d="M 897.75 644.67 A 12.92 12.92 0 0 1  910.67 631.75 L 897.75 644.67 A 12.92 12.92 0 0 0 910.67 631.75" fill="#5eead4"/><rect x="952.0285090909091" y="619.5285090909091" width="24.442981818181813" height="24.442981818181813" fill="#ffffff"/><path d="M 952.03 619.53 A 12.22 12.22 0 0 1  964.25 631.75 L 952.03 619.53 A 12.22 12.22 0 0 0 964.25 631.75" fill="#5eead4"/><path d="M 964.25 631.75 A 12.22 12.22 0 0 1  976.47 619.53 L 964.25 631.75 A 12.22 12.22 0 0 0 976.47 619.53" fill="#5eead4"/><circle cx="958.14" cy="637.86" r="6.11" fill="#5eead4"/><path d="M 964.25 643.97 A 12.22 12.22 0 0 1  976.47 631.75 L 964.25 643.97 A 12.22 12.22 0 0 0 976.47 631.75" fill="#bc53fd"/><rect x="1019.2249454545455" y="620.2249454545455" width="23.050109090909082" height="23.050109090909082" fill="#ffffff"/><path d="M 1019.22 620.22 A 11.53 11.53 0 0 1  1030.75 631.75 L 1019.22 620.22 A 11.53 11.53 0 0 0 1030.75 631.75" fill="#bc53fd"/><path d="M 1030.75 631.75 A 11.53 11.53 0 0 1  1042.28 620.22 L 1030.75 631.75 A 11.53 11.53 0 0 0 1042.28 620.22" fill="#5eead4"/><circle cx="1024.9850000000001" cy="637.515" r="5.765" fill="#bc53fd"/><circle cx="1036.515" cy="637.515" r="5.765" fill="#bc53fd"/><circle cx="1097.25" cy="631.75" r="10.83" fill="#5eead4"/><rect x="1153.6178181818182" y="621.6178181818182" width="20.264363636363633" height="20.264363636363633" fill="#ffffff"/><path d="M 1153.62 621.62 A 10.13 10.13 0 0 1  1163.75 631.75 L 1153.62 621.62 A 10.13 10.13 0 0 0 1163.75 631.75" fill="#5eead4"/><path d="M 1163.75 631.75 A 10.13 10.13 0 0 0 1173.88 621.62 L 1163.75 621.62L1163.75 631.75" fill="#bc53fd"/><circle cx="1158.685" cy="636.815" r="5.065" fill="#5eead4"/><path d="M 1163.75 631.75 A 10.13 10.13 0 0 1  1173.88 641.88 L 1163.75 631.75 A 10.13 10.13 0 0 0 1173.88 641.88" fill="#bc53fd"/><path d="M 1220.81 641.18 A 18.87 18.87 0 0 1  1239.6799999999998 622.31 L 1220.81 641.18 A 18.87 18.87 0 0 0 1239.6799999999998 622.31" fill="#5eead4"/><path d="M 1288.01 640.49 A 17.48 17.48 0 0 1  1305.49 623.01 L 1305.49 640.49L1288.01 640.49" fill="#bc53fd"/><rect x="1355.2071272727273" y="623.7071272727272" width="16.085745454545446" height="16.085745454545446" fill="#ffffff"/><circle cx="1359.23" cy="627.73" r="4.02" fill="#bc53fd"/><path d="M 1363.25 623.71 A 8.04 8.04 0 0 1  1371.29 631.75 L 1363.25 623.71 A 8.04 8.04 0 0 0 1371.29 631.75" fill="#5eead4"/><circle cx="1359.23" cy="635.77" r="4.02" fill="#5eead4"/><circle cx="1367.27" cy="635.77" r="4.02" fill="#bc53fd"/><rect x="1422.4035636363637" y="624.4035636363636" width="14.692872727272729" height="14.692872727272729" fill="#ffffff"/><circle cx="1426.075" cy="628.0749999999999" r="3.675" fill="#bc53fd"/><circle cx="1433.425" cy="628.0749999999999" r="3.675" fill="#5eead4"/><path d="M 1422.4 631.75 A 7.35 7.35 0 0 1  1429.75 639.1 L 1422.4 631.75 A 7.35 7.35 0 0 0 1429.75 639.1" fill="#bc53fd"/><circle cx="1433.425" cy="635.425" r="3.675" fill="#bc53fd"/></g></svg>